<?xml version="1.0" encoding="utf-8"?>
<!-- Generator: Adobe Illustrator 24.0.3, SVG Export Plug-In . SVG Version: 6.00 Build 0)  -->
<svg version="1.1" id="Layer_1" xmlns="http://www.w3.org/2000/svg" xmlns:xlink="http://www.w3.org/1999/xlink" x="0px" y="0px"
	 viewBox="0 0 1024 420" style="enable-background:new 0 0 1024 420;" xml:space="preserve">
<style type="text/css">
	.st0{fill:none;}
	.st1{fill:none;stroke:#7BEDD1;stroke-width:0.3;}
	.st2{fill:#272635;}
	.st3{opacity:0.15;}
	.st4{fill:none;stroke:#7BEDD1;stroke-miterlimit:10;}
	.st5{fill:none;stroke:#7BEDD1;stroke-miterlimit:10;stroke-dasharray:11.9059,11.9059;}
	.st6{opacity:0.25;fill:url(#SVGID_1_);stroke:#7BEDD1;stroke-miterlimit:10;stroke-dasharray:12;enable-background:new    ;}
	.st7{fill:none;stroke:#7BEDD1;stroke-miterlimit:10;stroke-dasharray:11.9349,11.9349;}
	.st8{fill:#7BEDD1;}
	.st9{enable-background:new    ;}
	.st10{fill:#FFFFFF;}
</style>
<pattern  y="420" width="57.6" height="57.6" patternUnits="userSpaceOnUse" id="Crosses_3" viewBox="0 -57.6 57.6 57.6" style="overflow:visible;">
	<g>
		<rect y="-57.6" class="st0" width="57.6" height="57.6"/>
		<g>
			<rect y="-57.6" class="st0" width="57.6" height="57.6"/>
			<line class="st1" x1="52.5" y1="-3.6" x2="55.5" y2="-3.6"/>
			<line class="st1" x1="38.1" y1="-3.6" x2="41.1" y2="-3.6"/>
			<line class="st1" x1="23.7" y1="-3.6" x2="26.7" y2="-3.6"/>
			<line class="st1" x1="9.3" y1="-3.6" x2="12.3" y2="-3.6"/>
			<line class="st1" x1="45.3" y1="-10.8" x2="48.3" y2="-10.8"/>
			<line class="st1" x1="30.9" y1="-10.8" x2="33.9" y2="-10.8"/>
			<line class="st1" x1="16.5" y1="-10.8" x2="19.5" y2="-10.8"/>
			<line class="st1" x1="2.1" y1="-10.8" x2="5.1" y2="-10.8"/>
			<line class="st1" x1="52.5" y1="-18" x2="55.5" y2="-18"/>
			<line class="st1" x1="38.1" y1="-18" x2="41.1" y2="-18"/>
			<line class="st1" x1="23.7" y1="-18" x2="26.7" y2="-18"/>
			<line class="st1" x1="9.3" y1="-18" x2="12.3" y2="-18"/>
			<line class="st1" x1="45.3" y1="-25.2" x2="48.3" y2="-25.2"/>
			<line class="st1" x1="30.9" y1="-25.2" x2="33.9" y2="-25.2"/>
			<line class="st1" x1="16.5" y1="-25.2" x2="19.5" y2="-25.2"/>
			<line class="st1" x1="2.1" y1="-25.2" x2="5.1" y2="-25.2"/>
			<line class="st1" x1="52.5" y1="-32.4" x2="55.5" y2="-32.4"/>
			<line class="st1" x1="38.1" y1="-32.4" x2="41.1" y2="-32.4"/>
			<line class="st1" x1="23.7" y1="-32.4" x2="26.7" y2="-32.4"/>
			<line class="st1" x1="9.3" y1="-32.4" x2="12.3" y2="-32.4"/>
			<line class="st1" x1="45.3" y1="-39.6" x2="48.3" y2="-39.6"/>
			<line class="st1" x1="30.9" y1="-39.6" x2="33.9" y2="-39.6"/>
			<line class="st1" x1="16.5" y1="-39.6" x2="19.5" y2="-39.6"/>
			<line class="st1" x1="2.1" y1="-39.6" x2="5.1" y2="-39.6"/>
			<line class="st1" x1="52.5" y1="-46.8" x2="55.5" y2="-46.8"/>
			<line class="st1" x1="38.1" y1="-46.8" x2="41.1" y2="-46.8"/>
			<line class="st1" x1="23.7" y1="-46.8" x2="26.7" y2="-46.8"/>
			<line class="st1" x1="9.3" y1="-46.8" x2="12.3" y2="-46.8"/>
			<line class="st1" x1="45.3" y1="-54" x2="48.3" y2="-54"/>
			<line class="st1" x1="30.9" y1="-54" x2="33.9" y2="-54"/>
			<line class="st1" x1="16.5" y1="-54" x2="19.5" y2="-54"/>
			<line class="st1" x1="2.1" y1="-54" x2="5.1" y2="-54"/>
			<line class="st1" x1="54" y1="-2.1" x2="54" y2="-5.1"/>
			<line class="st1" x1="39.6" y1="-2.1" x2="39.6" y2="-5.1"/>
			<line class="st1" x1="25.2" y1="-2.1" x2="25.2" y2="-5.1"/>
			<line class="st1" x1="10.8" y1="-2.1" x2="10.8" y2="-5.1"/>
			<line class="st1" x1="46.8" y1="-9.3" x2="46.8" y2="-12.3"/>
			<line class="st1" x1="32.4" y1="-9.3" x2="32.4" y2="-12.3"/>
			<line class="st1" x1="18" y1="-9.3" x2="18" y2="-12.3"/>
			<line class="st1" x1="3.6" y1="-9.3" x2="3.6" y2="-12.3"/>
			<line class="st1" x1="54" y1="-16.5" x2="54" y2="-19.5"/>
			<line class="st1" x1="39.6" y1="-16.5" x2="39.6" y2="-19.5"/>
			<line class="st1" x1="25.2" y1="-16.5" x2="25.2" y2="-19.5"/>
			<line class="st1" x1="10.8" y1="-16.5" x2="10.8" y2="-19.5"/>
			<line class="st1" x1="46.8" y1="-23.7" x2="46.8" y2="-26.7"/>
			<line class="st1" x1="32.4" y1="-23.7" x2="32.4" y2="-26.7"/>
			<line class="st1" x1="18" y1="-23.7" x2="18" y2="-26.7"/>
			<line class="st1" x1="3.6" y1="-23.7" x2="3.6" y2="-26.7"/>
			<line class="st1" x1="54" y1="-30.9" x2="54" y2="-33.9"/>
			<line class="st1" x1="39.6" y1="-30.9" x2="39.6" y2="-33.9"/>
			<line class="st1" x1="25.2" y1="-30.9" x2="25.2" y2="-33.9"/>
			<line class="st1" x1="10.8" y1="-30.9" x2="10.8" y2="-33.9"/>
			<line class="st1" x1="46.8" y1="-38.1" x2="46.8" y2="-41.1"/>
			<line class="st1" x1="32.4" y1="-38.1" x2="32.4" y2="-41.1"/>
			<line class="st1" x1="18" y1="-38.1" x2="18" y2="-41.1"/>
			<line class="st1" x1="3.6" y1="-38.1" x2="3.6" y2="-41.1"/>
			<line class="st1" x1="54" y1="-45.3" x2="54" y2="-48.3"/>
			<line class="st1" x1="39.6" y1="-45.3" x2="39.6" y2="-48.3"/>
			<line class="st1" x1="25.2" y1="-45.3" x2="25.2" y2="-48.3"/>
			<line class="st1" x1="10.8" y1="-45.3" x2="10.8" y2="-48.3"/>
			<line class="st1" x1="46.8" y1="-52.5" x2="46.8" y2="-55.5"/>
			<line class="st1" x1="32.4" y1="-52.5" x2="32.4" y2="-55.5"/>
			<line class="st1" x1="18" y1="-52.5" x2="18" y2="-55.5"/>
			<line class="st1" x1="3.6" y1="-52.5" x2="3.6" y2="-55.5"/>
		</g>
	</g>
</pattern>
<path class="st2" d="M-0.5,0h1024v419.9H-0.5V0z"/>
<g class="st3">
	<g>
		<line class="st4" x1="-0.5" y1="163.1" x2="5.5" y2="163.1"/>
		<line class="st5" x1="17.4" y1="163.1" x2="1011.5" y2="163.1"/>
		<line class="st4" x1="1017.5" y1="163.1" x2="1023.5" y2="163.1"/>
	</g>
</g>
<pattern  id="SVGID_1_" xlink:href="#Crosses_3" patternTransform="matrix(1 0 0 -1 -24 -17006.6992)">
</pattern>
<rect x="94.3" y="67.6" class="st6" width="817.1" height="286.5"/>
<g class="st3">
	<g>
		<line class="st4" x1="815.9" y1="354.1" x2="815.9" y2="348.1"/>
		<line class="st7" x1="815.9" y1="336.2" x2="815.9" y2="79.6"/>
		<line class="st4" x1="815.9" y1="73.6" x2="815.9" y2="67.6"/>
	</g>
</g>
<g class="st3">
	<g>
		<line class="st4" x1="189.8" y1="354.1" x2="189.8" y2="348.1"/>
		<line class="st7" x1="189.8" y1="336.2" x2="189.8" y2="79.6"/>
		<line class="st4" x1="189.8" y1="73.6" x2="189.8" y2="67.6"/>
	</g>
</g>
<g class="st3">
	<g>
		<line class="st4" x1="-0.5" y1="210.9" x2="5.5" y2="210.9"/>
		<line class="st5" x1="17.4" y1="210.9" x2="1011.5" y2="210.9"/>
		<line class="st4" x1="1017.5" y1="210.9" x2="1023.5" y2="210.9"/>
	</g>
</g>
<g class="st3">
	<g>
		<line class="st4" x1="-0.5" y1="258.6" x2="5.5" y2="258.6"/>
		<line class="st5" x1="17.4" y1="258.6" x2="1011.5" y2="258.6"/>
		<line class="st4" x1="1017.5" y1="258.6" x2="1023.5" y2="258.6"/>
	</g>
</g>
<g>
	<path class="st8" d="M553.8,229.6c-4.4,0-7.8,1.5-10,4.5c-1.2,1.6-1.9,3.6-1.8,5.6c0,2,0.6,4,1.8,5.6c2.3,3,5.6,4.5,10,4.5
		c8.1,0,12.2-5.3,12.2-15.2v-28.9c-4.4,4.5-9.5,6.8-15.2,6.8c-6.1,0.2-12-2.4-16.1-7.1c-4.2-4.8-6.3-10.8-6.3-18
		c0-11.5,6.6-24.3,22.5-24.3h26.2v9.9H553c-9.9,0-13.3,7.3-13.3,14.2c-0.2,3.9,1,7.7,3.3,10.8c2.4,3.1,6.1,4.8,10,4.6
		c3.9,0.1,7.6-1.6,10-4.6c2.4-3.1,3.6-6.9,3.4-10.8v-4.6h10.7v49.8c0,5.6-0.2,10.2-2,14.4c-4.3,10-13.2,13-21.3,13
		c-6.4,0-11.7-1.7-15.8-5.2c-4.5-3.6-7.1-9-7.1-14.7c0-5.8,2.6-11.3,7.1-15c4.1-3.4,9.4-5.2,15.8-5.2h0.1L553.8,229.6z"/>
	<path class="st8" d="M203.1,239.7c0,2,0.7,4,1.9,5.6c2.3,3,5.7,4.5,10.1,4.5c8.1,0,12.2-5.3,12.2-15.2v-28.9
		c-4.4,4.5-9.5,6.8-15.2,6.8c-6.2,0.2-12.1-2.4-16.1-7.1c-4.2-4.8-6.3-10.8-6.3-18c0-11.5,6.6-24.3,22.5-24.3h26.2v9.9h-24.1
		c-9.9,0-13.3,7.3-13.3,14.2c-0.2,3.9,1,7.6,3.3,10.8c2.4,3.1,6.1,4.8,10,4.6c3.9,0.1,7.6-1.6,10-4.6c2.4-3.1,3.6-6.9,3.4-10.8v-4.6
		h10.6v49.8c0,2.3-0.1,4.3-0.2,6c-0.1,1.5-0.3,3.1-0.6,4.6c-0.7,3.5-2.3,6.7-4.6,9.3c-4.3,5-10.3,7.5-17.9,7.5
		c-6.4,0-11.7-1.7-15.8-5.2c-4.5-3.6-7.1-9-7.1-14.8s2.6-11.3,7.1-15c4.1-3.4,9.4-5.2,15.8-5.2h41.9v10H215c-4.4,0-7.8,1.5-10.1,4.5
		C203.7,235.8,203.1,237.7,203.1,239.7L203.1,239.7z"/>
	<path class="st8" d="M810.7,167.5l-6.3,7.3c-2.3-2-5.2-3.1-8.2-3.1c-1.1,0-2.2,0.3-3.1,1c-0.7,0.7-1.2,1.6-1.2,2.6
		c0,2.5,2.1,3.8,6.4,5.5c11.5,4.4,16.2,7.6,16.2,16.2c0,4.6-4.2,15.5-18.4,15.5c-6.7,0.1-13-2.8-17.2-8l6.3-7.1
		c1.8,2.4,6.8,5.2,11.1,5.2c3.8,0,6.8-2,6.8-5.4c0-3.7-4-5.3-8.6-7c-6.2-2.3-13-5.9-13-14c-0.1-3.9,1.5-7.7,4.3-10.4
		c2.9-2.7,6.7-4.2,10.7-4.1C801.8,161.6,807,163.7,810.7,167.5L810.7,167.5z"/>
	<path class="st8" d="M284.9,163H296v48h-11.1v-5c-4.6,4.3-9.5,6.4-14.7,6.4c-6.3,0.2-12.3-2.5-16.5-7.2c-4.3-4.9-6.5-11-6.5-18.4
		c0-7.2,2.2-13.2,6.5-18c4.1-4.7,10-7.3,16.2-7.2c5.6,0,10.6,2.3,15,6.9V163z M258.5,186.9c0,4.6,1.2,8.3,3.7,11.2
		c2.4,2.8,5.9,4.5,9.6,4.4c3.8,0.2,7.5-1.4,10-4.2c5.1-6.6,5.1-15.7,0-22.3c-2.5-2.8-6.1-4.4-9.9-4.3c-3.7-0.1-7.2,1.5-9.6,4.3
		C259.8,179.1,258.4,182.9,258.5,186.9L258.5,186.9z"/>
	<path class="st8" d="M330.1,202.5c0.9,0,2-0.1,2-0.1v9.8c0,0-2.6,0.2-3.9,0.2c-10.7,0-17-6.8-17-17.6v-21.4h-5.1V163h5.1v-17.6
		h11.1V163h10v10.4h-10V193C322.4,200.9,327,202.5,330.1,202.5L330.1,202.5z"/>
	<path class="st8" d="M372.6,167.5l-6.3,7.3c-2.3-2-5.2-3.1-8.2-3.1c-1.1-0.1-2.2,0.3-3.1,1c-0.7,0.7-1.2,1.6-1.2,2.6
		c0,2.5,2.1,3.8,6.4,5.5c11.5,4.4,16.1,7.6,16.1,16.2c0,4.6-4.2,15.5-18.4,15.5c-6.7,0.1-13-2.8-17.2-8l6.3-7.1
		c1.8,2.4,6.8,5.2,11.1,5.2c3.8,0,6.8-2,6.8-5.4c0-3.7-4-5.3-8.6-7c-6.2-2.3-13-5.9-13-14c-0.1-3.9,1.5-7.7,4.3-10.4
		c2.9-2.7,6.7-4.2,10.6-4.1C363.8,161.6,368.9,163.7,372.6,167.5L372.6,167.5z"/>
	<path class="st8" d="M396.8,127.8v40.8c4.4-4.6,9.5-6.9,15.1-6.9c6.2-0.1,12.1,2.5,16.2,7.2c4.3,4.8,6.5,10.8,6.5,17.9
		c0,7.4-2.2,13.5-6.5,18.3c-7.8,8.8-21.2,9.7-30.1,1.9c-0.4-0.3-0.8-0.7-1.1-1.1v5h-11.1v-83.2h11V127.8z M423.2,187.4
		c0-4.6-1.2-8.3-3.7-11.2c-2.3-2.9-5.8-4.5-9.5-4.4c-3.8-0.1-7.5,1.4-10,4.3c-2.5,2.8-3.8,6.5-3.8,11c0,4.7,1.2,8.4,3.8,11.2
		c2.5,2.8,6.1,4.4,9.9,4.3c3.7,0.1,7.2-1.5,9.6-4.3C421.9,195.2,423.3,191.4,423.2,187.4L423.2,187.4z"/>
	<path class="st8" d="M458.8,202.1L437.2,163h12.9l14.7,27.6l13.7-27.6H491l-38.2,74.1h-12.6L458.8,202.1z"/>
	<path class="st8" d="M600.3,163v27.6c0,8,3.1,11.9,9.4,11.9s9.4-4,9.4-11.9V163h11.1v27.9c0.1,3.4-0.4,6.8-1.4,10
		c-1,2.6-2.6,4.9-4.8,6.8c-3.7,3.3-8.5,4.9-14.3,4.9s-10.5-1.6-14.2-4.9c-2.2-1.8-3.8-4.1-4.9-6.8c-0.9-2.2-1.4-5.6-1.4-10v-27.8
		L600.3,163z"/>
	<path class="st8" d="M640.7,143.1c0-1.9,0.8-3.7,2.1-5c2.8-2.8,7.4-2.8,10.2,0l0,0c1.4,1.3,2.2,3.2,2.1,5.1c0,1.9-0.7,3.8-2.1,5.1
		c-1.3,1.4-3.2,2.2-5.1,2.1C643.9,150.4,640.7,147.2,640.7,143.1C640.7,143.2,640.7,143.1,640.7,143.1L640.7,143.1z M653.4,163.1v48
		h-11.1v-48H653.4z"/>
	<path class="st8" d="M702.9,127.8H714V211h-11.1v-5c-4.4,4.3-9.3,6.4-14.8,6.4c-6.3,0.1-12.2-2.5-16.4-7.2
		c-4.3-4.9-6.5-11-6.5-18.4c0-7.2,2.2-13.1,6.5-17.9c4-4.7,9.9-7.4,16.1-7.2c5.6,0,10.6,2.3,15.1,6.9L702.9,127.8L702.9,127.8z
		 M676.6,186.9c0,4.6,1.2,8.3,3.7,11.2c2.3,2.8,5.9,4.5,9.6,4.4c3.8,0.2,7.5-1.4,10-4.2c5.1-6.6,5.1-15.7,0-22.3
		c-2.5-2.8-6.1-4.4-9.9-4.3c-3.7-0.1-7.2,1.5-9.6,4.3C677.8,179.1,676.4,182.9,676.6,186.9z"/>
	<path class="st8" d="M770.8,189.7h-34.4c0.1,3.5,1.5,6.8,3.8,9.4c2.3,2.3,5.5,3.6,8.7,3.4c2.4,0.1,4.8-0.6,6.8-2
		c1.8-1.3,3.8-3.8,6.1-7.3l9.4,5.2c-1.3,2.3-2.8,4.4-4.6,6.3c-1.5,1.7-3.3,3.1-5.2,4.3c-1.9,1.1-3.9,2-6,2.5c-2.3,0.5-4.6,0.8-7,0.8
		c-7.2,0-12.9-2.3-17.2-6.9c-4.3-4.6-6.5-10.7-6.5-18.4c0-7.6,2.1-13.7,6.3-18.4s9.8-7,16.9-7c7.1,0,12.7,2.2,16.8,6.8
		s6.1,10.7,6.1,18.6L770.8,189.7z M759.4,180.6c-1.5-5.9-5.3-8.9-11.2-8.9c-1.3,0-2.6,0.2-3.8,0.6c-1.2,0.4-2.3,1-3.2,1.8
		c-1,0.8-1.8,1.7-2.5,2.8s-1.3,2.4-1.6,3.7L759.4,180.6z"/>
</g>
<g class="st9">
	<path class="st10" d="M126.5,194.2l3.6-5.8l-3.4-5.3h2l1.5,2.4c0.2,0.3,0.3,0.6,0.5,0.9c0.2,0.3,0.4,0.6,0.6,0.9h0.1
		c0.2-0.3,0.3-0.6,0.5-0.9c0.2-0.3,0.3-0.6,0.5-0.9l1.3-2.4h2l-3.4,5.5l3.6,5.6h-2l-1.6-2.6c-0.2-0.3-0.4-0.7-0.6-1
		c-0.2-0.3-0.4-0.7-0.6-1h-0.1c-0.2,0.3-0.4,0.6-0.6,1c-0.2,0.3-0.4,0.7-0.5,1l-1.5,2.6H126.5z"/>
</g>
<g class="st9">
	<path class="st10" d="M132.2,120.7v-1.1c1.1-1.1,2.1-2.1,2.9-3c0.9-0.9,1.6-1.7,2.1-2.5c0.6-0.8,1-1.4,1.3-2.1
		c0.3-0.6,0.5-1.2,0.5-1.8c0-0.8-0.2-1.5-0.7-2.1c-0.5-0.5-1.1-0.8-2.1-0.8c-0.6,0-1.2,0.2-1.7,0.5c-0.5,0.3-1,0.8-1.4,1.2l-1.1-1.1
		c0.6-0.7,1.3-1.2,1.9-1.6c0.7-0.4,1.5-0.6,2.5-0.6c1.4,0,2.4,0.4,3.2,1.2c0.8,0.8,1.2,1.8,1.2,3.1c0,0.7-0.1,1.4-0.4,2.1
		c-0.3,0.7-0.7,1.4-1.2,2.1c-0.5,0.7-1.1,1.5-1.9,2.3c-0.7,0.8-1.5,1.6-2.4,2.5c0.4,0,0.8-0.1,1.2-0.1c0.4,0,0.8,0,1.2,0h4.2v1.6
		H132.2z"/>
	<path class="st10" d="M142.9,120.7l3.6-5.8l-3.4-5.3h2l1.5,2.4c0.2,0.3,0.3,0.6,0.5,0.9c0.2,0.3,0.4,0.6,0.6,0.9h0.1
		c0.2-0.3,0.3-0.6,0.5-0.9c0.2-0.3,0.3-0.6,0.5-0.9l1.3-2.4h2l-3.4,5.5l3.6,5.6h-2l-1.6-2.6c-0.2-0.3-0.4-0.7-0.6-1
		c-0.2-0.3-0.4-0.7-0.6-1h-0.1c-0.2,0.3-0.4,0.6-0.6,1c-0.2,0.3-0.4,0.7-0.5,1l-1.5,2.6H142.9z"/>
</g>
<g class="st9">
	<path class="st10" d="M132.2,312.3v-1.1c1.1-1.1,2.1-2.1,2.9-3c0.9-0.9,1.6-1.7,2.1-2.5c0.6-0.8,1-1.4,1.3-2.1
		c0.3-0.6,0.5-1.2,0.5-1.8c0-0.8-0.2-1.5-0.7-2.1c-0.5-0.5-1.1-0.8-2.1-0.8c-0.6,0-1.2,0.2-1.7,0.5c-0.5,0.3-1,0.8-1.4,1.2l-1.1-1.1
		c0.6-0.7,1.3-1.2,1.9-1.6c0.7-0.4,1.5-0.6,2.5-0.6c1.4,0,2.4,0.4,3.2,1.2c0.8,0.8,1.2,1.8,1.2,3.1c0,0.7-0.1,1.4-0.4,2.1
		c-0.3,0.7-0.7,1.4-1.2,2.1c-0.5,0.7-1.1,1.5-1.9,2.3c-0.7,0.8-1.5,1.6-2.4,2.5c0.4,0,0.8-0.1,1.2-0.1c0.4,0,0.8,0,1.2,0h4.2v1.6
		H132.2z"/>
	<path class="st10" d="M142.9,312.3l3.6-5.8l-3.4-5.3h2l1.5,2.4c0.2,0.3,0.3,0.6,0.5,0.9c0.2,0.3,0.4,0.6,0.6,0.9h0.1
		c0.2-0.3,0.3-0.6,0.5-0.9c0.2-0.3,0.3-0.6,0.5-0.9l1.3-2.4h2l-3.4,5.5l3.6,5.6h-2l-1.6-2.6c-0.2-0.3-0.4-0.7-0.6-1
		c-0.2-0.3-0.4-0.7-0.6-1h-0.1c-0.2,0.3-0.4,0.6-0.6,1c-0.2,0.3-0.4,0.7-0.5,1l-1.5,2.6H142.9z"/>
</g>
<g class="st9">
	<path class="st10" d="M853.8,120.7v-1.1c1.1-1.1,2.1-2.1,2.9-3s1.6-1.7,2.1-2.5c0.6-0.8,1-1.4,1.3-2.1s0.5-1.2,0.5-1.8
		c0-0.8-0.2-1.5-0.7-2.1c-0.5-0.5-1.1-0.8-2.1-0.8c-0.6,0-1.2,0.2-1.7,0.5c-0.5,0.3-1,0.8-1.4,1.2l-1.1-1.1c0.6-0.7,1.3-1.2,1.9-1.6
		c0.7-0.4,1.5-0.6,2.5-0.6c1.4,0,2.4,0.4,3.2,1.2c0.8,0.8,1.2,1.8,1.2,3.1c0,0.7-0.1,1.4-0.4,2.1s-0.7,1.4-1.2,2.1
		c-0.5,0.7-1.1,1.5-1.9,2.3s-1.5,1.6-2.4,2.5c0.4,0,0.8-0.1,1.2-0.1c0.4,0,0.8,0,1.2,0h4.2v1.6H853.8z"/>
	<path class="st10" d="M864.5,120.7l3.6-5.8l-3.4-5.3h2l1.5,2.4c0.2,0.3,0.3,0.6,0.5,0.9c0.2,0.3,0.4,0.6,0.6,0.9h0.1
		c0.2-0.3,0.3-0.6,0.5-0.9c0.2-0.3,0.3-0.6,0.5-0.9l1.3-2.4h2l-3.4,5.5l3.6,5.6h-2l-1.6-2.6c-0.2-0.3-0.4-0.7-0.6-1
		c-0.2-0.3-0.4-0.7-0.6-1h-0.1c-0.2,0.3-0.4,0.6-0.6,1c-0.2,0.3-0.4,0.7-0.5,1l-1.5,2.6H864.5z"/>
</g>
<g class="st9">
	<path class="st10" d="M853.8,312.3v-1.1c1.1-1.1,2.1-2.1,2.9-3s1.6-1.7,2.1-2.5c0.6-0.8,1-1.4,1.3-2.1s0.5-1.2,0.5-1.8
		c0-0.8-0.2-1.5-0.7-2.1c-0.5-0.5-1.1-0.8-2.1-0.8c-0.6,0-1.2,0.2-1.7,0.5c-0.5,0.3-1,0.8-1.4,1.2l-1.1-1.1c0.6-0.7,1.3-1.2,1.9-1.6
		c0.7-0.4,1.5-0.6,2.5-0.6c1.4,0,2.4,0.4,3.2,1.2c0.8,0.8,1.2,1.8,1.2,3.1c0,0.7-0.1,1.4-0.4,2.1s-0.7,1.4-1.2,2.1
		c-0.5,0.7-1.1,1.5-1.9,2.3s-1.5,1.6-2.4,2.5c0.4,0,0.8-0.1,1.2-0.1c0.4,0,0.8,0,1.2,0h4.2v1.6H853.8z"/>
	<path class="st10" d="M864.5,312.3l3.6-5.8l-3.4-5.3h2l1.5,2.4c0.2,0.3,0.3,0.6,0.5,0.9c0.2,0.3,0.4,0.6,0.6,0.9h0.1
		c0.2-0.3,0.3-0.6,0.5-0.9c0.2-0.3,0.3-0.6,0.5-0.9l1.3-2.4h2l-3.4,5.5l3.6,5.6h-2l-1.6-2.6c-0.2-0.3-0.4-0.7-0.6-1
		c-0.2-0.3-0.4-0.7-0.6-1h-0.1c-0.2,0.3-0.4,0.6-0.6,1c-0.2,0.3-0.4,0.7-0.5,1l-1.5,2.6H864.5z"/>
</g>
<g>
	<g>
		<line class="st4" x1="146.5" y1="169.1" x2="146.5" y2="205.4"/>
		<g>
			<path class="st8" d="M146.5,163c-1.1,2.8-2.9,6.4-4.8,8.5l4.8-1.7l4.8,1.7C149.4,169.4,147.6,165.9,146.5,163z"/>
		</g>
		<g>
			<path class="st8" d="M146.5,211.5c-1.1-2.8-2.9-6.4-4.8-8.5l4.8,1.7l4.8-1.7C149.4,205.1,147.6,208.6,146.5,211.5z"/>
		</g>
	</g>
</g>
</svg>
