<svg id="Layer_1" data-name="Layer 1" xmlns="http://www.w3.org/2000/svg" viewBox="0 0 1024 453"><defs><style>.cls-1{fill:#272635;}.cls-2{fill:#7bedd1;}</style></defs><path class="cls-1" d="M-.5,0h1024V453H-.5Z"/><path class="cls-2" d="M544.63,185.27h25.88v-10.7h-28.1c-17.13,0-24.2,13.78-24.2,26.1q0,11.6,6.78,19.32a21.94,21.94,0,0,0,17.26,7.63q9.25,0,16.35-7.26v31c0,10.69-4.36,16.34-13.07,16.34q-7.1,0-10.8-4.81a9.74,9.74,0,0,1-2-6,9.89,9.89,0,0,1,2-6q3.71-4.82,10.8-4.82h0V235.4H504.79V195.55H493.35v4.91q0,7-3.65,11.54a13.08,13.08,0,0,1-10.8,5,12.81,12.81,0,0,1-10.69-4.93q-3.56-4.5-3.55-11.54c0-7.37,3.61-15.24,14.24-15.24h25.89v-10.7H476.68c-17.13,0-24.19,13.78-24.19,26.1q0,11.6,6.77,19.32a22,22,0,0,0,17.26,7.63q9.25,0,16.36-7.26v15H479.69q-10.32,0-17,5.56A20.49,20.49,0,0,0,455.06,257a20,20,0,0,0,7.64,15.83q6.68,5.55,17,5.56c8.75,0,18.28-3.23,22.91-13.94,1.92-4.44,2.19-9.41,2.19-15.44v-3H523.9a20.33,20.33,0,0,0-3.11,11,20,20,0,0,0,7.64,15.83q6.68,5.55,17,5.56c8.74,0,18.28-3.23,22.91-13.94,1.92-4.44,2.18-9.41,2.18-15.44v-53.5H559.08v4.91q0,7-3.65,11.54a13.08,13.08,0,0,1-10.8,5,12.81,12.81,0,0,1-10.69-4.93q-3.56-4.5-3.55-11.54C530.39,193.14,534,185.27,544.63,185.27Zm-51.75,66.12c0,10.69-4.36,16.34-13.08,16.34q-7.1,0-10.8-4.81a9.73,9.73,0,0,1-2-6,9.89,9.89,0,0,1,2-6q3.71-4.82,10.8-4.82h13.08Z"/></svg>