<?xml version="1.0" encoding="utf-8"?>
<!-- Generator: Adobe Illustrator 24.0.3, SVG Export Plug-In . SVG Version: 6.00 Build 0)  -->
<svg version="1.1" id="Layer_1" xmlns="http://www.w3.org/2000/svg" xmlns:xlink="http://www.w3.org/1999/xlink" x="0px" y="0px"
	 viewBox="0 0 1024 453" style="enable-background:new 0 0 1024 453;" xml:space="preserve">
<style type="text/css">
	.st0{fill:#272635;}
	.st1{fill:#7BEDD1;}
</style>
<path class="st0" d="M-0.5,0h1024v453H-0.5V0z"/>
<g>
	<path class="st1" d="M553.8,262.7c-4.4,0-7.8,1.5-10,4.5c-1.2,1.6-1.9,3.6-1.8,5.6c0,2,0.6,4,1.8,5.6c2.3,3,5.6,4.5,10,4.5
		c8.1,0,12.2-5.3,12.2-15.2v-28.9c-4.4,4.5-9.5,6.8-15.2,6.8c-6.1,0.2-12-2.4-16.1-7.1c-4.2-4.8-6.3-10.8-6.3-18
		c0-11.5,6.6-24.3,22.5-24.3h26.2v9.9H553c-9.9,0-13.3,7.3-13.3,14.2c-0.2,3.9,1,7.7,3.3,10.8c2.4,3.1,6.1,4.8,10,4.6
		c3.9,0.1,7.6-1.6,10-4.6c2.4-3.1,3.6-6.9,3.4-10.8v-4.6h10.7v49.8c0,5.6-0.2,10.2-2,14.4c-4.3,10-13.2,13-21.3,13
		c-6.4,0-11.7-1.7-15.8-5.2c-4.5-3.6-7.1-9-7.1-14.7c0-5.8,2.6-11.3,7.1-15c4.1-3.4,9.4-5.2,15.8-5.2h0.1L553.8,262.7z"/>
	<path class="st1" d="M203.1,272.8c0,2,0.7,4,1.9,5.6c2.3,3,5.7,4.5,10.1,4.5c8.1,0,12.2-5.3,12.2-15.2v-28.9
		c-4.4,4.5-9.5,6.8-15.2,6.8c-6.2,0.2-12.1-2.4-16.1-7.1c-4.2-4.8-6.3-10.8-6.3-18c0-11.5,6.6-24.3,22.5-24.3h26.2v9.9h-24.1
		c-9.9,0-13.3,7.3-13.3,14.2c-0.2,3.9,1,7.6,3.3,10.8c2.4,3.1,6.1,4.8,10,4.6c3.9,0.1,7.6-1.6,10-4.6c2.4-3.1,3.6-6.9,3.4-10.8v-4.6
		h10.6v49.8c0,2.3-0.1,4.3-0.2,6c-0.1,1.5-0.3,3.1-0.6,4.6c-0.7,3.5-2.3,6.7-4.6,9.3c-4.3,5-10.3,7.5-17.9,7.5
		c-6.4,0-11.7-1.7-15.8-5.2c-4.5-3.6-7.1-9-7.1-14.8c0-5.8,2.6-11.3,7.1-15c4.1-3.4,9.4-5.2,15.8-5.2h41.9v10H215
		c-4.4,0-7.8,1.5-10.1,4.5C203.7,268.9,203.1,270.8,203.1,272.8L203.1,272.8z"/>
	<path class="st1" d="M810.7,200.6l-6.3,7.3c-2.3-2-5.2-3.1-8.2-3.1c-1.1,0-2.2,0.3-3.1,1c-0.7,0.7-1.2,1.6-1.2,2.6
		c0,2.5,2.1,3.8,6.4,5.5c11.5,4.4,16.2,7.6,16.2,16.2c0,4.6-4.2,15.5-18.4,15.5c-6.7,0.1-13-2.8-17.2-8l6.3-7.1
		c1.8,2.4,6.8,5.2,11.1,5.2c3.8,0,6.8-2,6.8-5.4c0-3.7-4-5.3-8.6-7c-6.2-2.3-13-5.9-13-14c-0.1-3.9,1.5-7.7,4.3-10.4
		c2.9-2.7,6.7-4.2,10.7-4.1C801.8,194.7,807,196.8,810.7,200.6L810.7,200.6z"/>
	<path class="st1" d="M284.9,196.1H296v48h-11.1v-5c-4.6,4.3-9.5,6.4-14.7,6.4c-6.3,0.2-12.3-2.5-16.5-7.2c-4.3-4.9-6.5-11-6.5-18.4
		c0-7.2,2.2-13.2,6.5-18c4.1-4.7,10-7.3,16.2-7.2c5.6,0,10.6,2.3,15,6.9L284.9,196.1z M258.5,220c0,4.6,1.2,8.3,3.7,11.2
		c2.4,2.8,5.9,4.5,9.6,4.4c3.8,0.2,7.5-1.4,10-4.2c5.1-6.6,5.1-15.7,0-22.3c-2.5-2.8-6.1-4.4-9.9-4.3c-3.7-0.1-7.2,1.5-9.6,4.3
		C259.8,212.2,258.4,216,258.5,220L258.5,220z"/>
	<path class="st1" d="M330.1,235.6c0.9,0,2-0.1,2-0.1v9.8c0,0-2.6,0.2-3.9,0.2c-10.7,0-17-6.8-17-17.6v-21.4h-5.1v-10.4h5.1v-17.6
		h11.1v17.6h10v10.4h-10v19.6C322.4,234,327,235.6,330.1,235.6L330.1,235.6z"/>
	<path class="st1" d="M372.6,200.6l-6.3,7.3c-2.3-2-5.2-3.1-8.2-3.1c-1.1-0.1-2.2,0.3-3.1,1c-0.7,0.7-1.2,1.6-1.2,2.6
		c0,2.5,2.1,3.8,6.4,5.5c11.5,4.4,16.1,7.6,16.1,16.2c0,4.6-4.2,15.5-18.4,15.5c-6.7,0.1-13-2.8-17.2-8l6.3-7.1
		c1.8,2.4,6.8,5.2,11.1,5.2c3.8,0,6.8-2,6.8-5.4c0-3.7-4-5.3-8.6-7c-6.2-2.3-13-5.9-13-14c-0.1-3.9,1.5-7.7,4.3-10.4
		c2.9-2.7,6.7-4.2,10.6-4.1C363.8,194.7,368.9,196.8,372.6,200.6L372.6,200.6z"/>
	<path class="st1" d="M396.8,160.9v40.8c4.4-4.6,9.5-6.9,15.1-6.9c6.2-0.1,12.1,2.5,16.2,7.2c4.3,4.8,6.5,10.8,6.5,17.9
		c0,7.4-2.2,13.5-6.5,18.3c-7.8,8.8-21.2,9.7-30.1,1.9c-0.4-0.3-0.8-0.7-1.1-1.1v5h-11.1v-83.2H396.8z M423.2,220.5
		c0-4.6-1.2-8.3-3.7-11.2c-2.3-2.9-5.8-4.5-9.5-4.4c-3.8-0.1-7.5,1.4-10,4.3c-2.5,2.8-3.8,6.5-3.8,11c0,4.7,1.2,8.4,3.8,11.2
		c2.5,2.8,6.1,4.4,9.9,4.3c3.7,0.1,7.2-1.5,9.6-4.3C421.9,228.3,423.3,224.5,423.2,220.5L423.2,220.5z"/>
	<path class="st1" d="M458.8,235.2l-21.6-39.1h12.9l14.7,27.6l13.7-27.6H491l-38.2,74.1h-12.6L458.8,235.2z"/>
	<path class="st1" d="M600.3,196.1v27.6c0,8,3.1,11.9,9.4,11.9s9.4-4,9.4-11.9v-27.6h11.1V224c0.1,3.4-0.4,6.8-1.4,10
		c-1,2.6-2.6,4.9-4.8,6.8c-3.7,3.3-8.5,4.9-14.3,4.9s-10.5-1.6-14.2-4.9c-2.2-1.8-3.8-4.1-4.9-6.8c-0.9-2.2-1.4-5.6-1.4-10v-27.8
		L600.3,196.1z"/>
	<path class="st1" d="M640.7,176.2c0-1.9,0.8-3.7,2.1-5c2.8-2.8,7.4-2.8,10.2,0c0,0,0,0,0,0c1.4,1.3,2.2,3.2,2.1,5.1
		c0,1.9-0.7,3.8-2.1,5.1c-1.3,1.4-3.2,2.2-5.1,2.1C643.9,183.5,640.7,180.3,640.7,176.2C640.7,176.3,640.7,176.2,640.7,176.2
		L640.7,176.2z M653.4,196.2v48h-11.1v-48H653.4z"/>
	<path class="st1" d="M702.9,160.9H714v83.2h-11.1v-5c-4.4,4.3-9.3,6.4-14.8,6.4c-6.3,0.1-12.2-2.5-16.4-7.2
		c-4.3-4.9-6.5-11-6.5-18.4c0-7.2,2.2-13.1,6.5-17.9c4-4.7,9.9-7.4,16.1-7.2c5.6,0,10.6,2.3,15.1,6.9V160.9z M676.6,220
		c0,4.6,1.2,8.3,3.7,11.2c2.3,2.8,5.9,4.5,9.6,4.4c3.8,0.2,7.5-1.4,10-4.2c5.1-6.6,5.1-15.7,0-22.3c-2.5-2.8-6.1-4.4-9.9-4.3
		c-3.7-0.1-7.2,1.5-9.6,4.3C677.8,212.2,676.4,216,676.6,220z"/>
	<path class="st1" d="M770.8,222.8h-34.4c0.1,3.5,1.5,6.8,3.8,9.4c2.3,2.3,5.5,3.6,8.7,3.4c2.4,0.1,4.8-0.6,6.8-2
		c1.8-1.3,3.8-3.8,6.1-7.3l9.4,5.2c-1.3,2.3-2.8,4.4-4.6,6.3c-1.5,1.7-3.3,3.1-5.2,4.3c-1.9,1.1-3.9,2-6,2.5c-2.3,0.5-4.6,0.8-7,0.8
		c-7.2,0-12.9-2.3-17.2-6.9c-4.3-4.6-6.5-10.7-6.5-18.4c0-7.6,2.1-13.7,6.3-18.4c4.2-4.7,9.8-7,16.9-7c7.1,0,12.7,2.2,16.8,6.8
		s6.1,10.7,6.1,18.6L770.8,222.8z M759.4,213.7c-1.5-5.9-5.3-8.9-11.2-8.9c-1.3,0-2.6,0.2-3.8,0.6c-1.2,0.4-2.3,1-3.2,1.8
		c-1,0.8-1.8,1.7-2.5,2.8c-0.7,1.1-1.3,2.4-1.6,3.7L759.4,213.7z"/>
</g>
</svg>
