<?xml version="1.0" encoding="utf-8"?>
<!-- Generator: Adobe Illustrator 24.0.3, SVG Export Plug-In . SVG Version: 6.00 Build 0)  -->
<svg version="1.1" id="Layer_1" xmlns="http://www.w3.org/2000/svg" xmlns:xlink="http://www.w3.org/1999/xlink" x="0px" y="0px"
	 viewBox="0 0 1024 453" style="enable-background:new 0 0 1024 453;" xml:space="preserve">
<style type="text/css">
	.st0{fill:#272635;}
	.st1{fill:#7BEDD1;}
	.st2{fill:#FFFFFF;}
</style>
<path class="st0" d="M-0.5,0h1024v453H-0.5V0z"/>
<g>
	<g>
		<path class="st1" d="M266.5,267.8v-74.2h9.4v31.1h34.5v-31.1h9.5v74.2h-9.5v-35h-34.5v35H266.5z"/>
		<path class="st1" d="M347.5,269.2c-4.6,0-8.4-1.4-11.5-4.1c-3.1-2.7-4.6-6.6-4.6-11.5c0-6,2.7-10.7,8-13.9
			c5.4-3.2,13.9-5.4,25.7-6.7c0-1.7-0.2-3.4-0.5-5.1c-0.3-1.7-0.9-3.1-1.8-4.4c-0.8-1.3-2-2.3-3.5-3.1s-3.3-1.2-5.6-1.2
			c-3.2,0-6.1,0.6-8.9,1.8c-2.8,1.2-5.3,2.6-7.5,4.1l-3.6-6.4c2.6-1.7,5.7-3.3,9.4-4.8c3.7-1.5,7.8-2.3,12.2-2.3
			c6.7,0,11.6,2.1,14.6,6.2c3,4.1,4.5,9.6,4.5,16.5v33.7h-7.7l-0.8-6.6h-0.3c-2.6,2.2-5.5,4.1-8.5,5.6
			C354.2,268.4,350.9,269.2,347.5,269.2z M350.2,261.7c2.6,0,5.1-0.6,7.5-1.9c2.3-1.2,4.8-3.1,7.5-5.5v-15.3
			c-4.6,0.6-8.5,1.3-11.6,2.1c-3.1,0.8-5.7,1.8-7.6,2.9s-3.3,2.4-4.2,3.9c-0.9,1.5-1.3,3.1-1.3,4.8c0,3.2,0.9,5.4,2.8,6.8
			C345.2,261.1,347.5,261.7,350.2,261.7z"/>
		<path class="st1" d="M387.3,267.8v-55h7.7l0.8,7.9h0.3c2.6-2.6,5.4-4.8,8.3-6.6c2.9-1.8,6.3-2.7,10.1-2.7c5.8,0,10,1.8,12.7,5.4
			c2.7,3.6,4,9,4,16.1v34.8H422v-33.6c0-5.2-0.8-9-2.5-11.3c-1.7-2.3-4.3-3.5-7.9-3.5c-2.9,0-5.4,0.7-7.6,2.1
			c-2.2,1.4-4.7,3.5-7.5,6.3v39.8H387.3z"/>
		<path class="st1" d="M463.4,269.2c-6.9,0-12.5-2.5-16.6-7.5c-4.1-5-6.2-12.1-6.2-21.3c0-4.4,0.7-8.5,2-12c1.3-3.6,3.1-6.6,5.3-9.1
			c2.2-2.5,4.7-4.4,7.6-5.8c2.9-1.4,5.9-2,9-2s5.9,0.6,8.3,1.7c2.3,1.1,4.7,2.7,7.1,4.6l-0.5-9.4v-21.2h9.4v80.5h-7.7l-0.8-6.4H480
			c-2.2,2.1-4.7,3.9-7.5,5.5C469.7,268.4,466.7,269.2,463.4,269.2z M465.5,261.4c2.6,0,5-0.6,7.2-1.9c2.3-1.2,4.5-3.1,6.8-5.7v-28.7
			c-2.3-2.1-4.6-3.6-6.7-4.5c-2.1-0.9-4.4-1.3-6.6-1.3c-2.2,0-4.2,0.5-6.2,1.5c-1.9,1-3.6,2.5-5,4.3c-1.4,1.8-2.6,4.1-3.4,6.6
			c-0.8,2.6-1.2,5.4-1.2,8.6c0,6.6,1.3,11.8,4,15.5C456.9,259.6,460.6,261.4,465.5,261.4z"/>
		<path class="st1" d="M521.4,293.2c-3.4,0-6.5-0.3-9.3-1c-2.8-0.6-5.2-1.6-7.2-2.9c-2-1.3-3.5-2.8-4.6-4.6
			c-1.1-1.8-1.6-3.9-1.6-6.3c0-2.3,0.7-4.6,2.1-6.7c1.4-2.1,3.4-4,5.9-5.8v-0.5c-1.4-0.8-2.5-2-3.5-3.5c-0.9-1.5-1.4-3.3-1.4-5.5
			c0-2.3,0.6-4.4,1.9-6.1c1.3-1.7,2.6-3.1,4.1-4.1v-0.5c-1.8-1.5-3.5-3.5-4.9-6.1c-1.5-2.5-2.2-5.4-2.2-8.8c0-3,0.5-5.7,1.6-8.1
			c1.1-2.4,2.6-4.5,4.5-6.2c1.9-1.7,4.1-3,6.6-3.9c2.5-0.9,5.2-1.4,8-1.4c1.5,0,2.9,0.1,4.2,0.4c1.3,0.3,2.5,0.6,3.6,1h19.1v7.1
			h-11.3c1.3,1.3,2.4,2.9,3.2,4.9c0.9,2,1.3,4.1,1.3,6.4c0,2.9-0.5,5.6-1.6,8c-1.1,2.4-2.5,4.4-4.3,6c-1.8,1.6-3.9,2.9-6.4,3.8
			c-2.5,0.9-5.1,1.4-7.9,1.4c-1.4,0-2.8-0.2-4.2-0.5c-1.4-0.3-2.8-0.8-4.1-1.4c-1,0.8-1.8,1.8-2.5,2.8c-0.7,1-1,2.3-1,3.8
			c0,1.7,0.7,3.2,2,4.3c1.4,1.1,3.9,1.7,7.7,1.7H530c6.4,0,11.2,1,14.4,3.1c3.2,2.1,4.8,5.4,4.8,10c0,2.6-0.6,5-1.9,7.3
			c-1.3,2.3-3.1,4.3-5.5,6.1c-2.4,1.7-5.3,3.1-8.8,4.1C529.6,292.7,525.7,293.2,521.4,293.2z M522.8,286.7c2.6,0,5-0.3,7.2-1
			c2.1-0.6,4-1.5,5.5-2.5c1.5-1,2.7-2.2,3.5-3.6c0.8-1.4,1.2-2.8,1.2-4.2c0-2.6-0.9-4.3-2.8-5.3c-1.9-1-4.6-1.5-8.3-1.5h-9.5
			c-1.1,0-2.2-0.1-3.5-0.2s-2.5-0.4-3.7-0.7c-2,1.4-3.4,2.9-4.3,4.5c-0.9,1.6-1.4,3.2-1.4,4.8c0,2.9,1.4,5.3,4.2,7
			C513.9,285.9,517.8,286.7,522.8,286.7z M521.4,244.2c1.6,0,3.1-0.3,4.5-0.9c1.4-0.6,2.6-1.5,3.7-2.6c1.1-1.1,1.9-2.5,2.5-4.1
			c0.6-1.6,0.9-3.5,0.9-5.5c0-4.1-1.1-7.2-3.4-9.4c-2.3-2.2-5-3.3-8.3-3.3c-3.2,0-6,1.1-8.3,3.3c-2.3,2.2-3.4,5.4-3.4,9.4
			c0,2,0.3,3.9,0.9,5.5c0.6,1.6,1.5,3,2.5,4.1c1.1,1.1,2.3,2,3.7,2.6C518.4,243.9,519.9,244.2,521.4,244.2z"/>
		<path class="st1" d="M569.7,269.2c-3.5,0-6.1-1.1-7.6-3.2c-1.5-2.1-2.3-5.2-2.3-9.3v-69.5h9.3v70.1c0,1.5,0.3,2.6,0.8,3.2
			c0.5,0.6,1.1,0.9,1.8,0.9c0.3,0,0.6,0,0.8,0c0.3,0,0.7-0.1,1.2-0.2l1.2,7c-0.6,0.3-1.3,0.5-2.1,0.7
			C572.1,269.1,571,269.2,569.7,269.2z"/>
		<path class="st1" d="M607.9,269.2c-3.4,0-6.6-0.6-9.7-1.9c-3.1-1.3-5.8-3.1-8.1-5.6c-2.3-2.4-4.2-5.5-5.6-9
			c-1.4-3.6-2.1-7.6-2.1-12.2c0-4.6,0.7-8.7,2.1-12.3c1.4-3.6,3.3-6.6,5.6-9.1c2.3-2.5,5-4.4,8.1-5.7c3.1-1.3,6.3-1.9,9.7-1.9
			s6.6,0.6,9.7,1.9c3.1,1.3,5.8,3.2,8.1,5.7c2.3,2.5,4.2,5.5,5.6,9.1c1.4,3.6,2.1,7.7,2.1,12.3c0,4.5-0.7,8.6-2.1,12.2
			c-1.4,3.6-3.3,6.6-5.6,9c-2.3,2.5-5,4.3-8.1,5.6C614.5,268.6,611.3,269.2,607.9,269.2z M607.9,261.5c2.3,0,4.5-0.5,6.4-1.5
			c2-1,3.6-2.5,5-4.3c1.4-1.8,2.5-4.1,3.2-6.6c0.8-2.6,1.1-5.4,1.1-8.6s-0.4-6.1-1.1-8.7c-0.8-2.6-1.8-4.8-3.2-6.7
			c-1.4-1.9-3.1-3.3-5-4.4c-2-1-4.1-1.5-6.4-1.5c-2.3,0-4.5,0.5-6.4,1.5c-2,1-3.6,2.5-5,4.4c-1.4,1.9-2.5,4.1-3.2,6.7
			c-0.8,2.6-1.1,5.5-1.1,8.7s0.4,6,1.1,8.6c0.8,2.6,1.8,4.8,3.2,6.6c1.4,1.8,3.1,3.3,5,4.3C603.4,261,605.5,261.5,607.9,261.5z"/>
		<path class="st1" d="M657,267.8l-19.8-55h9.6l10.4,31.2c0.8,2.7,1.7,5.4,2.5,8.1c0.9,2.7,1.7,5.4,2.5,8h0.5c0.8-2.6,1.7-5.3,2.5-8
			c0.8-2.7,1.7-5.4,2.5-8.1l10.4-31.2h9.2l-19.5,55H657z"/>
		<path class="st1" d="M717.5,269.2c-3.7,0-7.1-0.7-10.4-2c-3.2-1.3-6-3.2-8.4-5.7c-2.4-2.4-4.2-5.4-5.6-9c-1.4-3.5-2-7.6-2-12.1
			s0.7-8.6,2.1-12.2c1.4-3.6,3.2-6.6,5.5-9.1c2.3-2.5,4.9-4.4,7.9-5.7c2.9-1.3,6-2,9.2-2c3.5,0,6.6,0.6,9.3,1.8
			c2.8,1.2,5.1,2.9,6.9,5.2c1.8,2.3,3.3,5,4.2,8.1c1,3.2,1.5,6.7,1.5,10.6c0,1,0,1.9-0.1,2.9c0,0.9-0.1,1.8-0.3,2.4h-37.1
			c0.4,5.9,2.2,10.5,5.5,14c3.3,3.4,7.6,5.1,12.8,5.1c2.6,0,5.1-0.4,7.3-1.2c2.2-0.8,4.4-1.8,6.4-3.1l3.3,6.1c-2.4,1.5-5.1,2.8-8,4
			C724.6,268.6,721.2,269.2,717.5,269.2z M700.2,236h29.4c0-5.6-1.2-9.8-3.6-12.7c-2.4-2.9-5.7-4.4-10-4.4c-2,0-3.8,0.4-5.6,1.1
			c-1.8,0.8-3.4,1.9-4.8,3.3c-1.4,1.5-2.6,3.3-3.6,5.4C701.1,230.8,700.5,233.2,700.2,236z"/>
		<path class="st1" d="M765.7,269.2c-3.9,0-7.7-0.7-11.2-2.1c-3.5-1.4-6.6-3.2-9.3-5.4l4.6-6.2c2.4,2,4.9,3.5,7.4,4.8
			c2.5,1.2,5.4,1.8,8.8,1.8c3.6,0,6.3-0.8,8.1-2.5c1.8-1.7,2.7-3.7,2.7-6.1c0-1.4-0.4-2.7-1.1-3.7c-0.8-1.1-1.7-2-2.9-2.8
			c-1.2-0.8-2.5-1.5-4-2.1c-1.5-0.6-3-1.2-4.5-1.8c-2-0.7-3.9-1.5-5.9-2.3c-2-0.9-3.7-1.9-5.3-3.2c-1.5-1.2-2.8-2.7-3.8-4.4
			c-1-1.7-1.5-3.7-1.5-6c0-2.2,0.4-4.2,1.3-6.2c0.9-1.9,2.1-3.6,3.7-5c1.6-1.4,3.6-2.5,5.9-3.3c2.3-0.8,5-1.2,7.9-1.2
			c3.5,0,6.7,0.6,9.6,1.8c2.9,1.2,5.4,2.7,7.5,4.4l-4.4,5.9c-1.9-1.4-3.8-2.6-5.9-3.5c-2-0.9-4.3-1.4-6.7-1.4c-3.5,0-6,0.8-7.6,2.4
			c-1.6,1.6-2.4,3.4-2.4,5.5c0,1.3,0.3,2.4,1,3.3c0.7,0.9,1.6,1.8,2.7,2.5c1.1,0.7,2.4,1.4,3.9,1.9c1.5,0.6,3,1.2,4.6,1.8
			c2,0.8,3.9,1.5,5.9,2.4c2,0.8,3.8,1.9,5.4,3.1s2.9,2.8,3.9,4.6c1,1.8,1.5,4,1.5,6.6c0,2.3-0.4,4.4-1.3,6.3c-0.9,2-2.1,3.7-3.8,5.2
			c-1.7,1.5-3.8,2.7-6.3,3.6C771.8,268.8,768.9,269.2,765.7,269.2z"/>
	</g>
	<g>
		<path class="st2" d="M272.2,176.7c-1.3,0-2.6-0.3-3.7-0.8s-2.1-1.2-3-2.1l1.5-1.7c0.7,0.7,1.5,1.3,2.4,1.7
			c0.9,0.4,1.9,0.7,2.9,0.7c1.3,0,2.2-0.3,2.9-0.9c0.7-0.6,1.1-1.3,1.1-2.3c0-0.5-0.1-0.9-0.2-1.2c-0.2-0.3-0.4-0.6-0.7-0.9
			s-0.6-0.5-1-0.7c-0.4-0.2-0.8-0.4-1.3-0.6l-2.7-1.2c-0.4-0.2-0.9-0.4-1.4-0.7c-0.5-0.3-0.9-0.6-1.3-1c-0.4-0.4-0.7-0.9-0.9-1.4
			s-0.4-1.2-0.4-1.9c0-0.7,0.2-1.4,0.5-2c0.3-0.6,0.7-1.2,1.3-1.6c0.5-0.5,1.2-0.8,1.9-1.1c0.7-0.3,1.5-0.4,2.4-0.4
			c1.1,0,2.2,0.2,3.2,0.7c1,0.4,1.8,1,2.5,1.7l-1.3,1.6c-0.6-0.6-1.2-1-1.9-1.3c-0.7-0.3-1.5-0.5-2.4-0.5c-1.1,0-1.9,0.2-2.6,0.7
			s-1,1.2-1,2.1c0,0.5,0.1,0.9,0.3,1.2c0.2,0.3,0.4,0.6,0.7,0.8s0.7,0.5,1,0.6c0.4,0.2,0.7,0.4,1.1,0.5l2.7,1.2
			c0.5,0.2,1.1,0.5,1.5,0.8c0.5,0.3,0.9,0.7,1.3,1.1c0.4,0.4,0.6,0.9,0.8,1.4c0.2,0.5,0.3,1.2,0.3,1.9c0,0.8-0.2,1.5-0.5,2.1
			c-0.3,0.7-0.7,1.2-1.3,1.7c-0.6,0.5-1.2,0.9-2,1.2C274.2,176.6,273.3,176.7,272.2,176.7z"/>
		<path class="st2" d="M286.6,176.7c-0.9,0-1.7-0.2-2.5-0.5c-0.8-0.3-1.5-0.8-2.1-1.4c-0.6-0.6-1.1-1.4-1.4-2.3
			c-0.4-0.9-0.5-2-0.5-3.1c0-1.2,0.2-2.2,0.5-3.2c0.4-0.9,0.8-1.7,1.4-2.4c0.6-0.6,1.3-1.1,2.1-1.5c0.8-0.3,1.6-0.5,2.5-0.5
			s1.7,0.2,2.5,0.5s1.5,0.8,2.1,1.5c0.6,0.6,1.1,1.4,1.4,2.4c0.4,0.9,0.5,2,0.5,3.2c0,1.2-0.2,2.2-0.5,3.1c-0.4,0.9-0.8,1.7-1.4,2.3
			c-0.6,0.6-1.3,1.1-2.1,1.4C288.3,176.5,287.5,176.7,286.6,176.7z M286.6,174.7c0.6,0,1.2-0.1,1.7-0.4c0.5-0.3,0.9-0.6,1.3-1.1
			c0.4-0.5,0.6-1,0.8-1.7c0.2-0.7,0.3-1.4,0.3-2.2s-0.1-1.6-0.3-2.2c-0.2-0.7-0.5-1.3-0.8-1.7s-0.8-0.9-1.3-1.1
			c-0.5-0.3-1.1-0.4-1.7-0.4c-0.6,0-1.2,0.1-1.7,0.4c-0.5,0.3-0.9,0.6-1.3,1.1s-0.6,1.1-0.8,1.7c-0.2,0.7-0.3,1.4-0.3,2.2
			s0.1,1.6,0.3,2.2c0.2,0.7,0.5,1.2,0.8,1.7c0.4,0.5,0.8,0.8,1.3,1.1C285.5,174.6,286,174.7,286.6,174.7z"/>
		<path class="st2" d="M299.9,176.7c-1.5,0-2.6-0.5-3.3-1.4c-0.7-0.9-1-2.3-1-4.1v-9h2.4v8.7c0,1.3,0.2,2.3,0.6,2.9
			c0.4,0.6,1.1,0.9,2,0.9c0.7,0,1.4-0.2,2-0.6c0.6-0.4,1.2-1,1.9-1.8v-10.1h2.4v14.2h-2l-0.2-2.2h-0.1c-0.7,0.8-1.4,1.4-2.1,1.9
			C301.8,176.5,300.9,176.7,299.9,176.7z"/>
		<path class="st2" d="M310.5,176.4v-14.2h2l0.2,2.6h0.1c0.5-0.9,1.1-1.6,1.8-2.1c0.7-0.5,1.4-0.8,2.3-0.8c0.6,0,1.1,0.1,1.5,0.3
			l-0.5,2.1c-0.2-0.1-0.4-0.1-0.6-0.2s-0.4-0.1-0.7-0.1c-0.6,0-1.2,0.2-1.9,0.7s-1.2,1.3-1.7,2.5v9.1H310.5z"/>
		<path class="st2" d="M324.8,176.7c-0.9,0-1.8-0.2-2.6-0.5c-0.8-0.3-1.5-0.8-2.1-1.4s-1.1-1.4-1.4-2.3c-0.3-0.9-0.5-2-0.5-3.1
			c0-1.2,0.2-2.2,0.6-3.2c0.4-0.9,0.9-1.7,1.5-2.4s1.3-1.1,2.2-1.5c0.8-0.3,1.7-0.5,2.6-0.5c0.9,0,1.7,0.2,2.4,0.5
			c0.7,0.3,1.2,0.7,1.8,1.2l-1.2,1.6c-0.4-0.4-0.8-0.7-1.3-0.9s-1-0.4-1.5-0.4c-0.6,0-1.2,0.1-1.8,0.4c-0.5,0.3-1,0.6-1.4,1.1
			c-0.4,0.5-0.7,1.1-0.9,1.7c-0.2,0.7-0.3,1.4-0.3,2.2s0.1,1.6,0.3,2.2c0.2,0.7,0.5,1.2,0.9,1.7c0.4,0.5,0.8,0.8,1.4,1.1
			s1.1,0.4,1.8,0.4c0.7,0,1.3-0.1,1.8-0.4c0.6-0.3,1.1-0.6,1.5-1l1.1,1.6c-0.6,0.6-1.4,1-2.1,1.3
			C326.4,176.5,325.6,176.7,324.8,176.7z"/>
		<path class="st2" d="M336.4,176.7c-1,0-1.8-0.2-2.7-0.5c-0.8-0.3-1.5-0.8-2.2-1.5s-1.1-1.4-1.4-2.3s-0.5-2-0.5-3.1
			s0.2-2.2,0.5-3.1s0.8-1.7,1.4-2.4s1.3-1.1,2-1.5c0.8-0.3,1.5-0.5,2.4-0.5c0.9,0,1.7,0.2,2.4,0.5c0.7,0.3,1.3,0.8,1.8,1.3
			c0.5,0.6,0.8,1.3,1.1,2.1c0.3,0.8,0.4,1.7,0.4,2.7c0,0.3,0,0.5,0,0.7c0,0.2,0,0.5-0.1,0.6H332c0.1,1.5,0.6,2.7,1.4,3.6
			c0.8,0.9,2,1.3,3.3,1.3c0.7,0,1.3-0.1,1.9-0.3s1.1-0.5,1.6-0.8l0.8,1.6c-0.6,0.4-1.3,0.7-2.1,1
			C338.3,176.6,337.4,176.7,336.4,176.7z M332,168.1h7.6c0-1.4-0.3-2.5-0.9-3.3c-0.6-0.7-1.5-1.1-2.6-1.1c-0.5,0-1,0.1-1.4,0.3
			c-0.5,0.2-0.9,0.5-1.2,0.9c-0.4,0.4-0.7,0.8-0.9,1.4C332.2,166.8,332.1,167.4,332,168.1z"/>
		<path class="st2" d="M354.2,176.7c-1.3,0-2.6-0.3-3.7-0.8s-2.1-1.2-3-2.1l1.5-1.7c0.7,0.7,1.5,1.3,2.4,1.7
			c0.9,0.4,1.9,0.7,2.9,0.7c1.3,0,2.2-0.3,2.9-0.9c0.7-0.6,1.1-1.3,1.1-2.3c0-0.5-0.1-0.9-0.2-1.2c-0.2-0.3-0.4-0.6-0.7-0.9
			s-0.6-0.5-1-0.7c-0.4-0.2-0.8-0.4-1.3-0.6l-2.7-1.2c-0.4-0.2-0.9-0.4-1.4-0.7c-0.5-0.3-0.9-0.6-1.3-1c-0.4-0.4-0.7-0.9-0.9-1.4
			s-0.4-1.2-0.4-1.9c0-0.7,0.2-1.4,0.5-2c0.3-0.6,0.7-1.2,1.3-1.6c0.5-0.5,1.2-0.8,1.9-1.1c0.7-0.3,1.5-0.4,2.4-0.4
			c1.1,0,2.2,0.2,3.2,0.7c1,0.4,1.8,1,2.5,1.7l-1.3,1.6c-0.6-0.6-1.2-1-1.9-1.3c-0.7-0.3-1.5-0.5-2.4-0.5c-1.1,0-1.9,0.2-2.6,0.7
			s-1,1.2-1,2.1c0,0.5,0.1,0.9,0.3,1.2c0.2,0.3,0.4,0.6,0.7,0.8s0.7,0.5,1,0.6c0.4,0.2,0.7,0.4,1.1,0.5l2.7,1.2
			c0.5,0.2,1.1,0.5,1.5,0.8c0.5,0.3,0.9,0.7,1.3,1.1c0.4,0.4,0.6,0.9,0.8,1.4c0.2,0.5,0.3,1.2,0.3,1.9c0,0.8-0.2,1.5-0.5,2.1
			c-0.3,0.7-0.7,1.2-1.3,1.7c-0.6,0.5-1.2,0.9-2,1.2C356.1,176.6,355.2,176.7,354.2,176.7z"/>
		<path class="st2" d="M366.4,176.7c-1.2,0-2.2-0.4-3-1.1c-0.8-0.7-1.2-1.7-1.2-3c0-1.6,0.7-2.7,2.1-3.6c1.4-0.8,3.6-1.4,6.6-1.7
			c0-0.4,0-0.9-0.1-1.3c-0.1-0.4-0.2-0.8-0.5-1.1c-0.2-0.3-0.5-0.6-0.9-0.8c-0.4-0.2-0.9-0.3-1.4-0.3c-0.8,0-1.6,0.2-2.3,0.5
			c-0.7,0.3-1.4,0.7-1.9,1.1l-0.9-1.7c0.7-0.4,1.5-0.8,2.4-1.2c1-0.4,2-0.6,3.2-0.6c1.7,0,3,0.5,3.8,1.6c0.8,1.1,1.2,2.5,1.2,4.2
			v8.7h-2l-0.2-1.7h-0.1c-0.7,0.6-1.4,1-2.2,1.4C368.1,176.5,367.3,176.7,366.4,176.7z M367.1,174.8c0.7,0,1.3-0.2,1.9-0.5
			c0.6-0.3,1.2-0.8,1.9-1.4v-3.9c-1.2,0.2-2.2,0.3-3,0.6c-0.8,0.2-1.5,0.5-2,0.8c-0.5,0.3-0.9,0.6-1.1,1c-0.2,0.4-0.3,0.8-0.3,1.2
			c0,0.8,0.2,1.4,0.7,1.8C365.8,174.6,366.4,174.8,367.1,174.8z"/>
		<path class="st2" d="M376.7,176.4v-14.2h2l0.2,2h0.1c0.7-0.7,1.4-1.3,2.1-1.7c0.7-0.5,1.6-0.7,2.6-0.7c1.5,0,2.6,0.5,3.3,1.4
			c0.7,0.9,1,2.3,1,4.1v9h-2.4v-8.7c0-1.3-0.2-2.3-0.6-2.9c-0.4-0.6-1.1-0.9-2-0.9c-0.7,0-1.4,0.2-2,0.6s-1.2,0.9-1.9,1.6v10.3
			H376.7z"/>
		<path class="st2" d="M395.2,176.7c-1,0-2-0.2-2.9-0.6c-0.9-0.4-1.7-0.8-2.4-1.4l1.2-1.6c0.6,0.5,1.3,0.9,1.9,1.2
			c0.7,0.3,1.4,0.5,2.3,0.5c0.9,0,1.6-0.2,2.1-0.6s0.7-1,0.7-1.6c0-0.4-0.1-0.7-0.3-1s-0.4-0.5-0.7-0.7s-0.6-0.4-1-0.5
			c-0.4-0.2-0.8-0.3-1.2-0.5c-0.5-0.2-1-0.4-1.5-0.6c-0.5-0.2-1-0.5-1.4-0.8c-0.4-0.3-0.7-0.7-1-1.1c-0.3-0.4-0.4-0.9-0.4-1.5
			c0-0.6,0.1-1.1,0.3-1.6c0.2-0.5,0.5-0.9,1-1.3c0.4-0.4,0.9-0.6,1.5-0.8c0.6-0.2,1.3-0.3,2-0.3c0.9,0,1.7,0.2,2.5,0.5
			c0.7,0.3,1.4,0.7,1.9,1.1l-1.1,1.5c-0.5-0.4-1-0.7-1.5-0.9c-0.5-0.2-1.1-0.4-1.7-0.4c-0.9,0-1.6,0.2-2,0.6
			c-0.4,0.4-0.6,0.9-0.6,1.4c0,0.3,0.1,0.6,0.3,0.9c0.2,0.2,0.4,0.5,0.7,0.6c0.3,0.2,0.6,0.4,1,0.5c0.4,0.1,0.8,0.3,1.2,0.5
			c0.5,0.2,1,0.4,1.5,0.6c0.5,0.2,1,0.5,1.4,0.8c0.4,0.3,0.7,0.7,1,1.2c0.3,0.5,0.4,1,0.4,1.7c0,0.6-0.1,1.1-0.3,1.6
			c-0.2,0.5-0.6,1-1,1.3c-0.4,0.4-1,0.7-1.6,0.9C396.7,176.6,396,176.7,395.2,176.7z"/>
		<path class="st2" d="M407.4,176.4v-19.2h5.5c1.1,0,2,0.1,2.9,0.3s1.6,0.5,2.3,0.9c0.6,0.4,1.1,1,1.5,1.7c0.4,0.7,0.5,1.6,0.5,2.7
			c0,1-0.2,1.9-0.5,2.6c-0.3,0.7-0.8,1.4-1.4,1.8s-1.4,0.9-2.2,1.1c-0.9,0.2-1.8,0.4-2.9,0.4h-3.2v7.6H407.4z M409.9,166.8h2.9
			c1.7,0,2.9-0.3,3.7-0.9c0.8-0.6,1.2-1.6,1.2-3c0-1.4-0.4-2.3-1.3-2.9c-0.8-0.5-2.1-0.8-3.8-0.8h-2.7V166.8z"/>
		<path class="st2" d="M422.6,176.4v-14.2h2l0.2,2.6h0.1c0.5-0.9,1.1-1.6,1.8-2.1c0.7-0.5,1.4-0.8,2.3-0.8c0.6,0,1.1,0.1,1.5,0.3
			l-0.5,2.1c-0.2-0.1-0.4-0.1-0.6-0.2s-0.4-0.1-0.7-0.1c-0.6,0-1.2,0.2-1.9,0.7s-1.2,1.3-1.7,2.5v9.1H422.6z"/>
		<path class="st2" d="M436.7,176.7c-0.9,0-1.7-0.2-2.5-0.5c-0.8-0.3-1.5-0.8-2.1-1.4c-0.6-0.6-1.1-1.4-1.4-2.3
			c-0.4-0.9-0.5-2-0.5-3.1c0-1.2,0.2-2.2,0.5-3.2c0.4-0.9,0.8-1.7,1.4-2.4c0.6-0.6,1.3-1.1,2.1-1.5c0.8-0.3,1.6-0.5,2.5-0.5
			s1.7,0.2,2.5,0.5s1.5,0.8,2.1,1.5c0.6,0.6,1.1,1.4,1.4,2.4c0.4,0.9,0.5,2,0.5,3.2c0,1.2-0.2,2.2-0.5,3.1c-0.4,0.9-0.8,1.7-1.4,2.3
			c-0.6,0.6-1.3,1.1-2.1,1.4C438.4,176.5,437.6,176.7,436.7,176.7z M436.7,174.7c0.6,0,1.2-0.1,1.7-0.4c0.5-0.3,0.9-0.6,1.3-1.1
			c0.4-0.5,0.6-1,0.8-1.7c0.2-0.7,0.3-1.4,0.3-2.2s-0.1-1.6-0.3-2.2c-0.2-0.7-0.5-1.3-0.8-1.7s-0.8-0.9-1.3-1.1
			c-0.5-0.3-1.1-0.4-1.7-0.4c-0.6,0-1.2,0.1-1.7,0.4c-0.5,0.3-0.9,0.6-1.3,1.1s-0.6,1.1-0.8,1.7c-0.2,0.7-0.3,1.4-0.3,2.2
			s0.1,1.6,0.3,2.2c0.2,0.7,0.5,1.2,0.8,1.7c0.4,0.5,0.8,0.8,1.3,1.1C435.6,174.6,436.1,174.7,436.7,174.7z"/>
	</g>
</g>
</svg>
