<?xml version="1.0" encoding="utf-8"?>
<!-- Generator: Adobe Illustrator 24.0.3, SVG Export Plug-In . SVG Version: 6.00 Build 0)  -->
<svg version="1.1" id="Layer_1" xmlns="http://www.w3.org/2000/svg" xmlns:xlink="http://www.w3.org/1999/xlink" x="0px" y="0px"
	 viewBox="0 0 1024 420" style="enable-background:new 0 0 1024 420;" xml:space="preserve">
<style type="text/css">
	.st0{fill:#272635;}
	.st1{fill:#7BEDD1;}
	.st2{fill:#FFFFFF;}
	.st3{fill:none;stroke:#7BEDD1;stroke-miterlimit:10;}
</style>
<path class="st0" d="M-0.5,0h1024v419.9H-0.5V0z"/>
<g>
	<path class="st1" d="M389.1,196.5c-3.4,0-6,1.1-7.6,3.4c-0.9,1.2-1.5,2.7-1.4,4.3c0,1.5,0.5,3.1,1.4,4.3c1.8,2.3,4.3,3.4,7.6,3.4
		c6.2,0,9.3-4,9.3-11.6v-22.1c-3.4,3.4-7.3,5.2-11.6,5.2c-4.7,0.2-9.2-1.8-12.3-5.4c-3.2-3.7-4.8-8.2-4.8-13.7
		c0-8.8,5-18.6,17.2-18.6h20v7.6h-18.4c-7.6,0-10.2,5.6-10.2,10.8c-0.2,3,0.8,5.9,2.5,8.2c1.8,2.4,4.7,3.7,7.6,3.5
		c3,0.1,5.8-1.2,7.6-3.5c1.8-2.4,2.7-5.3,2.6-8.2v-3.5h8.2v38c0,4.3-0.2,7.8-1.5,11c-3.3,7.6-10.1,9.9-16.3,9.9
		c-4.9,0-8.9-1.3-12.1-4c-3.4-2.7-5.4-6.9-5.4-11.2c0-4.4,2-8.6,5.4-11.5c3.1-2.6,7.2-4,12.1-4h0.1L389.1,196.5z"/>
	<path class="st1" d="M121.2,204.2c0,1.5,0.5,3.1,1.5,4.3c1.8,2.3,4.4,3.4,7.7,3.4c6.2,0,9.3-4,9.3-11.6v-22.1
		c-3.4,3.4-7.3,5.2-11.6,5.2c-4.7,0.2-9.2-1.8-12.3-5.4c-3.2-3.7-4.8-8.2-4.8-13.7c0-8.8,5-18.6,17.2-18.6h20v7.6h-18.4
		c-7.6,0-10.2,5.6-10.2,10.8c-0.2,3,0.8,5.8,2.5,8.2c1.8,2.4,4.7,3.7,7.6,3.5c3,0.1,5.8-1.2,7.6-3.5c1.8-2.4,2.7-5.3,2.6-8.2v-3.5
		h8.1v38c0,1.8-0.1,3.3-0.2,4.6c-0.1,1.1-0.2,2.4-0.5,3.5c-0.5,2.7-1.8,5.1-3.5,7.1c-3.3,3.8-7.9,5.7-13.7,5.7
		c-4.9,0-8.9-1.3-12.1-4c-3.4-2.7-5.4-6.9-5.4-11.3s2-8.6,5.4-11.5c3.1-2.6,7.2-4,12.1-4h32v7.6h-32c-3.4,0-6,1.1-7.7,3.4
		C121.6,201.2,121.2,202.7,121.2,204.2L121.2,204.2z"/>
	<path class="st1" d="M585.3,149.1l-4.8,5.6c-1.8-1.5-4-2.4-6.3-2.4c-0.8,0-1.7,0.2-2.4,0.8c-0.5,0.5-0.9,1.2-0.9,2
		c0,1.9,1.6,2.9,4.9,4.2c8.8,3.4,12.4,5.8,12.4,12.4c0,3.5-3.2,11.8-14.1,11.8c-5.1,0.1-9.9-2.1-13.1-6.1l4.8-5.4
		c1.4,1.8,5.2,4,8.5,4c2.9,0,5.2-1.5,5.2-4.1c0-2.8-3.1-4-6.6-5.3c-4.7-1.8-9.9-4.5-9.9-10.7c-0.1-3,1.1-5.9,3.3-7.9
		c2.2-2.1,5.1-3.2,8.2-3.1C578.5,144.6,582.5,146.2,585.3,149.1L585.3,149.1z"/>
	<path class="st1" d="M183.7,145.6h8.5v36.7h-8.5v-3.8c-3.5,3.3-7.3,4.9-11.2,4.9c-4.8,0.2-9.4-1.9-12.6-5.5c-3.3-3.7-5-8.4-5-14.1
		c0-5.5,1.7-10.1,5-13.7c3.1-3.6,7.6-5.6,12.4-5.5c4.3,0,8.1,1.8,11.5,5.3V145.6z M163.5,163.9c0,3.5,0.9,6.3,2.8,8.6
		c1.8,2.1,4.5,3.4,7.3,3.4c2.9,0.2,5.7-1.1,7.6-3.2c3.9-5,3.9-12,0-17c-1.9-2.1-4.7-3.4-7.6-3.3c-2.8-0.1-5.5,1.1-7.3,3.3
		C164.5,157.9,163.4,160.8,163.5,163.9L163.5,163.9z"/>
	<path class="st1" d="M218.2,175.8c0.7,0,1.5-0.1,1.5-0.1v7.5c0,0-2,0.2-3,0.2c-8.2,0-13-5.2-13-13.4v-16.3h-3.9v-7.9h3.9v-13.4h8.5
		v13.4h7.6v7.9h-7.6v15C212.3,174.6,215.8,175.8,218.2,175.8L218.2,175.8z"/>
	<path class="st1" d="M250.7,149.1l-4.8,5.6c-1.8-1.5-4-2.4-6.3-2.4c-0.8-0.1-1.7,0.2-2.4,0.8c-0.5,0.5-0.9,1.2-0.9,2
		c0,1.9,1.6,2.9,4.9,4.2c8.8,3.4,12.3,5.8,12.3,12.4c0,3.5-3.2,11.8-14.1,11.8c-5.1,0.1-9.9-2.1-13.1-6.1l4.8-5.4
		c1.4,1.8,5.2,4,8.5,4c2.9,0,5.2-1.5,5.2-4.1c0-2.8-3.1-4-6.6-5.3c-4.7-1.8-9.9-4.5-9.9-10.7c-0.1-3,1.1-5.9,3.3-7.9
		c2.2-2.1,5.1-3.2,8.1-3.1C243.9,144.6,247.8,146.2,250.7,149.1L250.7,149.1z"/>
	<path class="st1" d="M269.1,118.7v31.2c3.4-3.5,7.3-5.3,11.5-5.3c4.7-0.1,9.2,1.9,12.4,5.5c3.3,3.7,5,8.2,5,13.7
		c0,5.7-1.7,10.3-5,14c-6,6.7-16.2,7.4-23,1.5c-0.3-0.2-0.6-0.5-0.8-0.8v3.8h-8.5v-63.6L269.1,118.7L269.1,118.7z M289.3,164.3
		c0-3.5-0.9-6.3-2.8-8.6c-1.8-2.2-4.4-3.4-7.3-3.4c-2.9-0.1-5.7,1.1-7.6,3.3c-1.9,2.1-2.9,5-2.9,8.4c0,3.6,0.9,6.4,2.9,8.6
		c1.9,2.1,4.7,3.4,7.6,3.3c2.8,0.1,5.5-1.1,7.3-3.3C288.3,170.2,289.4,167.3,289.3,164.3L289.3,164.3z"/>
	<path class="st1" d="M316.5,175.5L300,145.6h9.9l11.2,21.1l10.5-21.1h9.5l-29.2,56.6h-9.6L316.5,175.5z"/>
	<path class="st1" d="M424.6,145.6v21.1c0,6.1,2.4,9.1,7.2,9.1c4.8,0,7.2-3.1,7.2-9.1v-21.1h8.5v21.3c0.1,2.6-0.3,5.2-1.1,7.6
		c-0.8,2-2,3.7-3.7,5.2c-2.8,2.5-6.5,3.7-10.9,3.7s-8-1.2-10.8-3.7c-1.7-1.4-2.9-3.1-3.7-5.2c-0.7-1.7-1.1-4.3-1.1-7.6v-21.2
		L424.6,145.6z"/>
	<path class="st1" d="M455.4,130.4c0-1.5,0.6-2.8,1.6-3.8c2.1-2.1,5.7-2.1,7.8,0l0,0c1.1,1,1.7,2.4,1.6,3.9c0,1.5-0.5,2.9-1.6,3.9
		c-1,1.1-2.4,1.7-3.9,1.6C457.9,136,455.4,133.6,455.4,130.4C455.4,130.5,455.4,130.4,455.4,130.4L455.4,130.4z M465.1,145.7v36.7
		h-8.5v-36.7H465.1z"/>
	<path class="st1" d="M502.9,118.7h8.5v63.6h-8.5v-3.8c-3.4,3.3-7.1,4.9-11.3,4.9c-4.8,0.1-9.3-1.9-12.5-5.5c-3.3-3.7-5-8.4-5-14.1
		c0-5.5,1.7-10,5-13.7c3.1-3.6,7.6-5.7,12.3-5.5c4.3,0,8.1,1.8,11.5,5.3L502.9,118.7L502.9,118.7z M482.9,163.9
		c0,3.5,0.9,6.3,2.8,8.6c1.8,2.1,4.5,3.4,7.3,3.4c2.9,0.2,5.7-1.1,7.6-3.2c3.9-5,3.9-12,0-17c-1.9-2.1-4.7-3.4-7.6-3.3
		c-2.8-0.1-5.5,1.1-7.3,3.3C483.8,157.9,482.7,160.8,482.9,163.9z"/>
	<path class="st1" d="M554.8,166h-26.3c0.1,2.7,1.1,5.2,2.9,7.2c1.8,1.8,4.2,2.7,6.6,2.6c1.8,0.1,3.7-0.5,5.2-1.5
		c1.4-1,2.9-2.9,4.7-5.6l7.2,4c-1,1.8-2.1,3.4-3.5,4.8c-1.1,1.3-2.5,2.4-4,3.3c-1.5,0.8-3,1.5-4.6,1.9c-1.8,0.4-3.5,0.6-5.3,0.6
		c-5.5,0-9.9-1.8-13.1-5.3c-3.3-3.5-5-8.2-5-14.1c0-5.8,1.6-10.5,4.8-14.1c3.2-3.6,7.5-5.3,12.9-5.3s9.7,1.7,12.8,5.2
		s4.7,8.2,4.7,14.2L554.8,166z M546.1,159.1c-1.1-4.5-4-6.8-8.6-6.8c-1,0-2,0.2-2.9,0.5c-0.9,0.3-1.8,0.8-2.4,1.4
		c-0.8,0.6-1.4,1.3-1.9,2.1c-0.5,0.8-1,1.8-1.2,2.8H546.1z"/>
</g>
<g>
	<path class="st2" d="M254.2,303.1l2.2-11.1h1.4l-0.2,1.7h0.1c0.6-0.5,1.2-1,1.8-1.4s1.2-0.6,1.8-0.6c0.4,0,0.8,0.1,1.1,0.2
		c0.3,0.1,0.6,0.3,0.8,0.5s0.4,0.4,0.5,0.7s0.2,0.6,0.2,0.9c0.7-0.7,1.4-1.2,2.1-1.6c0.7-0.4,1.3-0.6,1.9-0.6c0.9,0,1.6,0.2,2,0.7
		c0.4,0.5,0.6,1.2,0.6,2c0,0.3,0,0.5,0,0.7c0,0.2-0.1,0.5-0.1,0.8l-1.4,7.1h-1.8l1.4-6.8c0.1-0.3,0.1-0.5,0.1-0.7c0-0.2,0-0.4,0-0.6
		c0-1.1-0.5-1.7-1.6-1.7c-0.3,0-0.8,0.2-1.3,0.5c-0.5,0.3-1.2,0.8-1.8,1.5l-1.6,7.9h-1.7l1.4-6.8c0.1-0.3,0.1-0.5,0.1-0.7
		c0-0.2,0-0.4,0-0.6c0-1.1-0.5-1.7-1.6-1.7c-0.3,0-0.8,0.2-1.3,0.5c-0.5,0.3-1.1,0.8-1.8,1.5l-1.6,7.9H254.2z"/>
	<path class="st2" d="M272.4,303.1l2.2-11.1h1.8l-2.2,11.1H272.4z M276.1,289.7c-0.3,0-0.6-0.1-0.8-0.3c-0.2-0.2-0.3-0.4-0.3-0.8
		c0-0.4,0.1-0.7,0.4-0.9c0.3-0.3,0.6-0.4,0.9-0.4c0.3,0,0.6,0.1,0.8,0.3s0.3,0.4,0.3,0.8c0,0.4-0.1,0.7-0.4,0.9
		C276.8,289.6,276.5,289.7,276.1,289.7z"/>
	<path class="st2" d="M277.8,303.1L280,292h1.4l-0.2,1.7h0.1c0.6-0.5,1.3-1,1.9-1.4c0.6-0.4,1.3-0.6,2-0.6c0.9,0,1.6,0.2,2,0.7
		s0.6,1.2,0.6,2c0,0.3,0,0.5,0,0.7c0,0.2-0.1,0.5-0.1,0.8l-1.4,7.1h-1.7l1.4-6.8c0.1-0.3,0.1-0.5,0.1-0.7c0-0.2,0-0.4,0-0.6
		c0-0.6-0.1-1-0.4-1.3s-0.7-0.4-1.3-0.4c-0.4,0-0.9,0.2-1.5,0.5c-0.5,0.3-1.2,0.8-1.9,1.5l-1.6,7.9H277.8z"/>
	<path class="st2" d="M295.3,303.1v-1.6h3.3v-10.7H296v-1.2c0.7-0.1,1.3-0.3,1.7-0.4s0.9-0.4,1.3-0.6h1.4v13h3v1.6H295.3z"/>
	<path class="st2" d="M307.7,303.4c-0.4,0-0.7-0.1-1-0.4c-0.3-0.3-0.4-0.6-0.4-1c0-0.4,0.1-0.8,0.4-1.1c0.3-0.3,0.6-0.4,1-0.4
		c0.4,0,0.7,0.1,0.9,0.4c0.3,0.3,0.4,0.6,0.4,1.1c0,0.4-0.1,0.8-0.4,1C308.4,303.2,308.1,303.4,307.7,303.4z"/>
	<path class="st2" d="M315.9,303.4c-0.6,0-1.1-0.1-1.6-0.2c-0.5-0.1-0.9-0.3-1.3-0.4c-0.4-0.2-0.7-0.4-1.1-0.6
		c-0.3-0.2-0.6-0.5-0.8-0.7l0.9-1.2c0.4,0.4,0.9,0.8,1.5,1.2c0.6,0.3,1.3,0.5,2.2,0.5c0.4,0,0.9-0.1,1.2-0.2c0.4-0.2,0.7-0.4,1-0.7
		c0.3-0.3,0.5-0.6,0.7-1.1c0.2-0.4,0.3-0.9,0.3-1.4c0-1-0.3-1.8-0.8-2.4c-0.6-0.6-1.3-0.8-2.3-0.8c-0.5,0-0.9,0.1-1.3,0.2
		c-0.4,0.2-0.8,0.4-1.2,0.7l-1-0.6l0.5-7h7.3v1.6h-5.6l-0.4,4.3c0.3-0.2,0.7-0.3,1-0.4s0.7-0.2,1.2-0.2c0.6,0,1.2,0.1,1.8,0.3
		s1,0.5,1.4,0.8c0.4,0.4,0.7,0.8,1,1.4s0.4,1.3,0.4,2c0,0.8-0.1,1.5-0.4,2.1s-0.6,1.1-1.1,1.5c-0.5,0.4-1,0.7-1.6,1
		C317.1,303.3,316.5,303.4,315.9,303.4z"/>
	<path class="st2" d="M329.3,289.7c-0.4,0-0.7-0.1-0.9-0.3c-0.3-0.2-0.4-0.5-0.4-0.9c0-0.4,0.1-0.7,0.4-0.9c0.3-0.2,0.6-0.3,0.9-0.3
		s0.7,0.1,0.9,0.3c0.3,0.2,0.4,0.5,0.4,0.9c0,0.4-0.1,0.6-0.4,0.9C329.9,289.6,329.6,289.7,329.3,289.7z M328.3,303.1V292h1.9v11.1
		H328.3z"/>
	<path class="st2" d="M333.9,303.1V292h1.6l0.2,1.6h0.1c0.5-0.5,1.1-1,1.7-1.3c0.6-0.4,1.3-0.5,2-0.5c1.2,0,2,0.4,2.6,1.1
		c0.5,0.7,0.8,1.8,0.8,3.2v7h-1.9v-6.8c0-1-0.2-1.8-0.5-2.3c-0.3-0.5-0.9-0.7-1.6-0.7c-0.6,0-1.1,0.1-1.5,0.4
		c-0.4,0.3-0.9,0.7-1.5,1.3v8H333.9z"/>
	<path class="st2" d="M349.3,306.8l6.1-19.9h1.4l-6.1,19.9H349.3z"/>
	<path class="st2" d="M362.6,303.1V302c1.1-1.1,2.1-2.1,2.9-3c0.9-0.9,1.6-1.7,2.1-2.5c0.6-0.8,1-1.4,1.3-2.1
		c0.3-0.6,0.5-1.2,0.5-1.8c0-0.8-0.2-1.5-0.7-2.1c-0.5-0.5-1.1-0.8-2.1-0.8c-0.6,0-1.2,0.2-1.7,0.5c-0.5,0.3-1,0.8-1.4,1.2l-1.1-1.1
		c0.6-0.7,1.3-1.2,1.9-1.6c0.7-0.4,1.5-0.6,2.5-0.6c1.4,0,2.4,0.4,3.2,1.2c0.8,0.8,1.2,1.8,1.2,3.1c0,0.7-0.1,1.4-0.4,2.1
		c-0.3,0.7-0.7,1.4-1.2,2.1s-1.1,1.5-1.9,2.3c-0.7,0.8-1.5,1.6-2.4,2.5c0.4,0,0.8-0.1,1.2-0.1c0.4,0,0.8,0,1.2,0h4.2v1.6H362.6z"/>
	<path class="st2" d="M378.7,303.4c-1.5,0-2.6-0.7-3.4-2s-1.2-3.2-1.2-5.6s0.4-4.3,1.2-5.6s2-1.9,3.4-1.9c1.5,0,2.6,0.6,3.4,1.9
		s1.2,3.1,1.2,5.6s-0.4,4.3-1.2,5.6S380.1,303.4,378.7,303.4z M378.7,301.9c0.4,0,0.8-0.1,1.2-0.4c0.3-0.2,0.6-0.6,0.9-1.1
		c0.3-0.5,0.4-1.1,0.6-1.9c0.1-0.8,0.2-1.7,0.2-2.8c0-1.1-0.1-2-0.2-2.7c-0.1-0.8-0.3-1.4-0.6-1.9s-0.5-0.8-0.9-1.1
		s-0.7-0.3-1.2-0.3c-0.4,0-0.8,0.1-1.2,0.3c-0.4,0.2-0.7,0.6-0.9,1.1s-0.4,1.1-0.6,1.9c-0.1,0.8-0.2,1.7-0.2,2.7
		c0,2.1,0.3,3.7,0.8,4.6C377.1,301.4,377.8,301.9,378.7,301.9z"/>
	<path class="st2" d="M390,303.4c-1.5,0-2.6-0.7-3.4-2s-1.2-3.2-1.2-5.6s0.4-4.3,1.2-5.6s2-1.9,3.4-1.9c1.5,0,2.6,0.6,3.4,1.9
		s1.2,3.1,1.2,5.6s-0.4,4.3-1.2,5.6S391.5,303.4,390,303.4z M390,301.9c0.4,0,0.8-0.1,1.2-0.4c0.3-0.2,0.6-0.6,0.9-1.1
		c0.3-0.5,0.4-1.1,0.6-1.9c0.1-0.8,0.2-1.7,0.2-2.8c0-1.1-0.1-2-0.2-2.7c-0.1-0.8-0.3-1.4-0.6-1.9s-0.5-0.8-0.9-1.1
		s-0.7-0.3-1.2-0.3c-0.4,0-0.8,0.1-1.2,0.3c-0.4,0.2-0.7,0.6-0.9,1.1s-0.4,1.1-0.6,1.9c-0.1,0.8-0.2,1.7-0.2,2.7
		c0,2.1,0.3,3.7,0.8,4.6C388.5,301.4,389.2,301.9,390,301.9z"/>
	<path class="st2" d="M397.6,307.8V292h1.6l0.2,1.3h0.1c0.5-0.4,1.1-0.8,1.7-1.1c0.6-0.3,1.2-0.5,1.9-0.5c0.7,0,1.3,0.1,1.9,0.4
		s1,0.6,1.4,1.1c0.4,0.5,0.6,1.1,0.8,1.8c0.2,0.7,0.3,1.5,0.3,2.3c0,0.9-0.1,1.8-0.4,2.5c-0.3,0.7-0.6,1.4-1.1,1.9
		c-0.4,0.5-1,0.9-1.5,1.2c-0.6,0.3-1.2,0.4-1.8,0.4c-0.5,0-1-0.1-1.5-0.3s-1-0.5-1.5-0.9l0,1.9v3.7H397.6z M402.2,301.8
		c0.5,0,0.9-0.1,1.3-0.3c0.4-0.2,0.7-0.5,1-0.9c0.3-0.4,0.5-0.8,0.7-1.4s0.2-1.2,0.2-1.8c0-0.6-0.1-1.2-0.2-1.7
		c-0.1-0.5-0.3-0.9-0.5-1.3c-0.2-0.4-0.5-0.6-0.9-0.8c-0.4-0.2-0.8-0.3-1.3-0.3c-0.5,0-0.9,0.1-1.4,0.4c-0.5,0.3-1,0.6-1.5,1.1v5.8
		c0.5,0.4,1,0.7,1.5,0.9S401.8,301.8,402.2,301.8z"/>
	<path class="st2" d="M408.3,303.1l3.6-5.8l-3.4-5.3h2l1.5,2.4c0.2,0.3,0.3,0.6,0.5,0.9c0.2,0.3,0.4,0.6,0.6,0.9h0.1
		c0.2-0.3,0.3-0.6,0.5-0.9c0.2-0.3,0.3-0.6,0.5-0.9l1.3-2.4h2l-3.4,5.5l3.6,5.6h-2l-1.6-2.6c-0.2-0.3-0.4-0.7-0.6-1
		c-0.2-0.3-0.4-0.7-0.6-1h-0.1c-0.2,0.3-0.4,0.6-0.6,1s-0.4,0.7-0.5,1l-1.5,2.6H408.3z"/>
</g>
<g>
	<path class="st2" d="M745.8,303.1L748,292h1.4l-0.2,1.7h0.1c0.6-0.5,1.2-1,1.8-1.4c0.6-0.4,1.2-0.6,1.8-0.6c0.4,0,0.8,0.1,1.1,0.2
		c0.3,0.1,0.6,0.3,0.8,0.5c0.2,0.2,0.4,0.4,0.5,0.7s0.2,0.6,0.2,0.9c0.7-0.7,1.4-1.2,2.1-1.6c0.7-0.4,1.3-0.6,1.9-0.6
		c0.9,0,1.6,0.2,2,0.7s0.6,1.2,0.6,2c0,0.3,0,0.5,0,0.7c0,0.2-0.1,0.5-0.1,0.8l-1.4,7.1h-1.8l1.4-6.8c0.1-0.3,0.1-0.5,0.1-0.7
		s0-0.4,0-0.6c0-1.1-0.5-1.7-1.6-1.7c-0.3,0-0.8,0.2-1.3,0.5c-0.5,0.3-1.2,0.8-1.8,1.5l-1.6,7.9h-1.7l1.4-6.8
		c0.1-0.3,0.1-0.5,0.1-0.7s0-0.4,0-0.6c0-1.1-0.5-1.7-1.6-1.7c-0.3,0-0.8,0.2-1.3,0.5c-0.5,0.3-1.1,0.8-1.8,1.5l-1.6,7.9H745.8z"/>
	<path class="st2" d="M764.1,303.1l2.2-11.1h1.8l-2.2,11.1H764.1z M767.8,289.7c-0.3,0-0.6-0.1-0.8-0.3c-0.2-0.2-0.3-0.4-0.3-0.8
		c0-0.4,0.1-0.7,0.4-0.9c0.3-0.3,0.6-0.4,0.9-0.4c0.3,0,0.6,0.1,0.8,0.3s0.3,0.4,0.3,0.8c0,0.4-0.1,0.7-0.4,0.9
		C768.4,289.6,768.1,289.7,767.8,289.7z"/>
	<path class="st2" d="M769.5,303.1l2.2-11.1h1.4l-0.2,1.7h0.1c0.6-0.5,1.3-1,1.9-1.4s1.3-0.6,2-0.6c0.9,0,1.6,0.2,2,0.7
		s0.6,1.2,0.6,2c0,0.3,0,0.5,0,0.7c0,0.2-0.1,0.5-0.1,0.8l-1.4,7.1h-1.7l1.4-6.8c0.1-0.3,0.1-0.5,0.1-0.7c0-0.2,0-0.4,0-0.6
		c0-0.6-0.1-1-0.4-1.3s-0.7-0.4-1.3-0.4c-0.4,0-0.9,0.2-1.5,0.5c-0.5,0.3-1.2,0.8-1.9,1.5l-1.6,7.9H769.5z"/>
	<path class="st2" d="M790.8,303.4c-1.5,0-2.6-0.7-3.4-2c-0.8-1.3-1.2-3.2-1.2-5.6s0.4-4.3,1.2-5.6c0.8-1.3,2-1.9,3.4-1.9
		c1.5,0,2.6,0.6,3.4,1.9c0.8,1.3,1.2,3.1,1.2,5.6s-0.4,4.3-1.2,5.6C793.4,302.7,792.3,303.4,790.8,303.4z M790.8,301.9
		c0.4,0,0.8-0.1,1.2-0.4c0.3-0.2,0.6-0.6,0.9-1.1c0.3-0.5,0.4-1.1,0.6-1.9s0.2-1.7,0.2-2.8c0-1.1-0.1-2-0.2-2.7
		c-0.1-0.8-0.3-1.4-0.6-1.9s-0.5-0.8-0.9-1.1c-0.3-0.2-0.7-0.3-1.2-0.3c-0.4,0-0.8,0.1-1.2,0.3c-0.4,0.2-0.7,0.6-0.9,1.1
		s-0.4,1.1-0.6,1.9c-0.1,0.8-0.2,1.7-0.2,2.7c0,2.1,0.3,3.7,0.8,4.6C789.3,301.4,790,301.9,790.8,301.9z"/>
	<path class="st2" d="M799.3,303.4c-0.4,0-0.7-0.1-1-0.4c-0.3-0.3-0.4-0.6-0.4-1c0-0.4,0.1-0.8,0.4-1.1c0.3-0.3,0.6-0.4,1-0.4
		c0.4,0,0.7,0.1,0.9,0.4c0.3,0.3,0.4,0.6,0.4,1.1c0,0.4-0.1,0.8-0.4,1C800,303.2,799.7,303.4,799.3,303.4z"/>
	<path class="st2" d="M803.1,303.1V302c1.1-1.1,2.1-2.1,2.9-3s1.6-1.7,2.1-2.5c0.6-0.8,1-1.4,1.3-2.1c0.3-0.6,0.5-1.2,0.5-1.8
		c0-0.8-0.2-1.5-0.7-2.1c-0.5-0.5-1.1-0.8-2.1-0.8c-0.6,0-1.2,0.2-1.7,0.5c-0.5,0.3-1,0.8-1.4,1.2l-1.1-1.1c0.6-0.7,1.3-1.2,1.9-1.6
		c0.7-0.4,1.5-0.6,2.5-0.6c1.4,0,2.4,0.4,3.2,1.2c0.8,0.8,1.2,1.8,1.2,3.1c0,0.7-0.1,1.4-0.4,2.1s-0.7,1.4-1.2,2.1
		c-0.5,0.7-1.1,1.5-1.9,2.3s-1.5,1.6-2.4,2.5c0.4,0,0.8-0.1,1.2-0.1c0.4,0,0.8,0,1.2,0h4.2v1.6H803.1z"/>
	<path class="st2" d="M818.9,303.4c-0.6,0-1.1-0.1-1.6-0.2c-0.5-0.1-0.9-0.3-1.3-0.4s-0.7-0.4-1-0.6c-0.3-0.2-0.6-0.5-0.8-0.7
		l0.9-1.2c0.4,0.4,0.9,0.8,1.5,1.2c0.6,0.3,1.3,0.5,2.2,0.5c0.4,0,0.9-0.1,1.2-0.2c0.4-0.2,0.7-0.4,1-0.7s0.5-0.6,0.7-1.1
		c0.2-0.4,0.3-0.9,0.3-1.4c0-1-0.3-1.8-0.8-2.4c-0.6-0.6-1.3-0.8-2.3-0.8c-0.5,0-0.9,0.1-1.3,0.2c-0.4,0.2-0.8,0.4-1.2,0.7l-1-0.6
		l0.5-7h7.3v1.6h-5.6l-0.4,4.3c0.3-0.2,0.7-0.3,1-0.4c0.3-0.1,0.7-0.2,1.2-0.2c0.6,0,1.2,0.1,1.8,0.3s1,0.5,1.4,0.8s0.7,0.8,1,1.4
		c0.2,0.6,0.4,1.3,0.4,2c0,0.8-0.1,1.5-0.4,2.1c-0.3,0.6-0.6,1.1-1.1,1.5c-0.5,0.4-1,0.7-1.6,1C820.1,303.3,819.5,303.4,818.9,303.4
		z"/>
	<path class="st2" d="M832.3,289.7c-0.4,0-0.7-0.1-0.9-0.3c-0.3-0.2-0.4-0.5-0.4-0.9c0-0.4,0.1-0.7,0.4-0.9c0.3-0.2,0.6-0.3,0.9-0.3
		s0.7,0.1,0.9,0.3s0.4,0.5,0.4,0.9c0,0.4-0.1,0.6-0.4,0.9S832.6,289.7,832.3,289.7z M831.3,303.1V292h1.9v11.1H831.3z"/>
	<path class="st2" d="M836.9,303.1V292h1.6l0.2,1.6h0.1c0.5-0.5,1.1-1,1.7-1.3c0.6-0.4,1.3-0.5,2-0.5c1.2,0,2,0.4,2.6,1.1
		c0.5,0.7,0.8,1.8,0.8,3.2v7h-1.9v-6.8c0-1-0.2-1.8-0.5-2.3c-0.3-0.5-0.9-0.7-1.6-0.7c-0.6,0-1.1,0.1-1.5,0.4s-0.9,0.7-1.5,1.3v8
		H836.9z"/>
	<path class="st2" d="M852.3,306.8l6.1-19.9h1.4l-6.1,19.9H852.3z"/>
	<path class="st2" d="M866.5,303.1v-1.6h3.3v-10.7h-2.6v-1.2c0.7-0.1,1.3-0.3,1.7-0.4c0.5-0.2,0.9-0.4,1.3-0.6h1.4v13h3v1.6H866.5z"
		/>
	<path class="st2" d="M882.1,303.4c-0.7,0-1.4-0.1-2-0.4s-1.1-0.7-1.6-1.3c-0.4-0.6-0.8-1.3-1.1-2.2c-0.3-0.9-0.4-1.9-0.4-3.1
		c0-1.5,0.2-2.7,0.5-3.7c0.3-1,0.7-1.9,1.2-2.5s1.1-1.1,1.8-1.4c0.7-0.3,1.4-0.4,2.1-0.4c0.8,0,1.5,0.1,2,0.4
		c0.6,0.3,1.1,0.7,1.5,1.1l-1,1.2c-0.3-0.3-0.7-0.6-1.1-0.8c-0.4-0.2-0.9-0.3-1.3-0.3c-0.5,0-1,0.1-1.4,0.3c-0.5,0.2-0.9,0.6-1.2,1
		c-0.4,0.5-0.6,1.1-0.8,1.9c-0.2,0.8-0.3,1.8-0.3,2.9c0.5-0.6,1-1,1.6-1.3c0.6-0.3,1.2-0.5,1.8-0.5c1.3,0,2.3,0.4,3,1.1
		c0.8,0.7,1.1,1.9,1.1,3.4c0,0.7-0.1,1.3-0.3,1.9c-0.2,0.6-0.5,1.1-0.9,1.5c-0.4,0.4-0.9,0.7-1.4,1S882.7,303.4,882.1,303.4z
		 M882.1,301.9c0.4,0,0.7-0.1,1-0.2c0.3-0.2,0.6-0.4,0.8-0.7c0.2-0.3,0.4-0.6,0.5-1c0.1-0.4,0.2-0.8,0.2-1.3c0-1-0.2-1.7-0.7-2.3
		c-0.4-0.5-1.1-0.8-2-0.8c-0.5,0-1,0.1-1.5,0.4c-0.5,0.3-1,0.8-1.5,1.5c0.1,1.4,0.5,2.5,1,3.3S881.2,301.9,882.1,301.9z"/>
	<path class="st2" d="M889.2,307.8V292h1.6l0.2,1.3h0.1c0.5-0.4,1.1-0.8,1.7-1.1c0.6-0.3,1.2-0.5,1.9-0.5c0.7,0,1.3,0.1,1.9,0.4
		s1,0.6,1.4,1.1c0.4,0.5,0.6,1.1,0.8,1.8c0.2,0.7,0.3,1.5,0.3,2.3c0,0.9-0.1,1.8-0.4,2.5c-0.3,0.7-0.6,1.4-1.1,1.9
		c-0.4,0.5-1,0.9-1.5,1.2c-0.6,0.3-1.2,0.4-1.8,0.4c-0.5,0-1-0.1-1.5-0.3s-1-0.5-1.5-0.9l0,1.9v3.7H889.2z M893.8,301.8
		c0.5,0,0.9-0.1,1.3-0.3c0.4-0.2,0.7-0.5,1-0.9c0.3-0.4,0.5-0.8,0.7-1.4c0.2-0.5,0.2-1.2,0.2-1.8c0-0.6-0.1-1.2-0.2-1.7
		c-0.1-0.5-0.3-0.9-0.5-1.3c-0.2-0.4-0.5-0.6-0.9-0.8c-0.4-0.2-0.8-0.3-1.3-0.3c-0.5,0-0.9,0.1-1.4,0.4s-1,0.6-1.5,1.1v5.8
		c0.5,0.4,1,0.7,1.5,0.9S893.4,301.8,893.8,301.8z"/>
	<path class="st2" d="M899.9,303.1l3.6-5.8l-3.4-5.3h2l1.5,2.4c0.2,0.3,0.3,0.6,0.5,0.9c0.2,0.3,0.4,0.6,0.6,0.9h0.1
		c0.2-0.3,0.3-0.6,0.5-0.9c0.2-0.3,0.3-0.6,0.5-0.9l1.3-2.4h2l-3.4,5.5l3.6,5.6h-2l-1.6-2.6c-0.2-0.3-0.4-0.7-0.6-1
		c-0.2-0.3-0.4-0.7-0.6-1h-0.1c-0.2,0.3-0.4,0.6-0.6,1s-0.4,0.7-0.5,1l-1.5,2.6H899.9z"/>
</g>
<g>
	<g>
		<line class="st3" x1="118.4" y1="268.9" x2="582.2" y2="268.9"/>
		<g>
			<path class="st1" d="M112.4,268.9c2.8,1.1,6.4,2.9,8.5,4.8l-1.7-4.8l1.7-4.8C118.8,266,115.2,267.8,112.4,268.9z"/>
		</g>
		<g>
			<path class="st1" d="M588.2,268.9c-2.8,1.1-6.4,2.9-8.5,4.8l1.7-4.8l-1.7-4.8C581.8,266,585.4,267.8,588.2,268.9z"/>
		</g>
	</g>
</g>
<g>
	<g>
		<line class="st3" x1="798.5" y1="268.9" x2="870.2" y2="268.9"/>
		<g>
			<path class="st1" d="M792.4,268.9c2.8,1.1,6.4,2.9,8.5,4.8l-1.7-4.8l1.7-4.8C798.8,266,795.3,267.8,792.4,268.9z"/>
		</g>
		<g>
			<path class="st1" d="M876.3,268.9c-2.8,1.1-6.4,2.9-8.5,4.8l1.7-4.8l-1.7-4.8C869.9,266,873.4,267.8,876.3,268.9z"/>
		</g>
	</g>
</g>
<g>
	<path class="st1" d="M857.9,153.4h18.4v-7.6h-20c-12.2,0-17.2,9.8-17.2,18.5c0,5.5,1.6,10.1,4.8,13.7c3.2,3.6,7.3,5.4,12.3,5.4
		c4.4,0,8.3-1.7,11.6-5.1v22c0,7.6-3.1,11.6-9.3,11.6c-3.4,0-5.9-1.1-7.7-3.4c-0.8-1-1.4-2.4-1.4-4.3s0.6-3.3,1.4-4.3
		c1.8-2.3,4.3-3.4,7.7-3.4l0,0v-7.6h-28.9v-28.3h-8.1v3.5c0,3.4-0.9,6.1-2.6,8.2c-1.9,2.4-4.4,3.6-7.7,3.6c-3.2,0-5.8-1.1-7.6-3.5
		c-1.7-2.1-2.5-4.8-2.5-8.2c0-5.2,2.6-10.8,10.1-10.8h18.4v-7.6h-20c-12.2,0-17.2,9.8-17.2,18.5c0,5.5,1.6,10.1,4.8,13.7
		c3.2,3.6,7.3,5.4,12.3,5.4c4.4,0,8.3-1.7,11.6-5.1v10.7h-9.3c-4.9,0-8.9,1.3-12,3.9c-3.3,2.7-5.4,6.6-5.4,11.4s2.1,8.6,5.4,11.3
		c3.1,2.6,7.2,3.9,12,3.9c6.2,0,13-2.3,16.3-9.9c1.4-3.1,1.6-6.7,1.6-11v-1.9h13.5c-1.4,2.2-2.2,4.8-2.2,7.8c0,4.8,2.1,8.6,5.4,11.3
		c3.1,2.6,7.2,3.9,12,3.9c6.2,0,13-2.3,16.3-9.9c1.4-3.1,1.6-6.7,1.6-11v-38h-8.1v3.5c0,3.4-0.9,6.1-2.6,8.2
		c-1.9,2.4-4.4,3.6-7.7,3.6c-3.2,0-5.8-1.1-7.6-3.5c-1.7-2.1-2.5-4.8-2.5-8.2C847.8,159,850.3,153.4,857.9,153.4z M821.2,200.4
		c0,7.6-3.1,11.6-9.3,11.6c-3.4,0-5.9-1.1-7.7-3.4c-0.8-1-1.4-2.4-1.4-4.3s0.6-3.3,1.4-4.3c1.8-2.3,4.3-3.4,7.7-3.4h9.3V200.4z"/>
</g>
</svg>
