<svg id="Layer_1" data-name="Layer 1" xmlns="http://www.w3.org/2000/svg" viewBox="0 0 1024 453"><defs><style>.cls-1{fill:#272635;}.cls-2{fill:#7bedd1;}.cls-3{fill:#fff;}</style></defs><title>Artboard 1</title><path class="cls-1" d="M-.5,0h1024V453H-.5Z"/><path class="cls-2" d="M266.48,267.85V193.64h9.39v31.11h34.5V193.64h9.5v74.21h-9.5v-35h-34.5v35Z"/><path class="cls-2" d="M345.21,269.21a16.61,16.61,0,0,1-11.48-4.08q-4.58-4.06-4.58-11.53,0-9.06,8-13.86T362.86,233a25.33,25.33,0,0,0-.51-5.09,12.9,12.9,0,0,0-1.75-4.41,9.29,9.29,0,0,0-3.45-3.11,11.67,11.67,0,0,0-5.6-1.19,22.22,22.22,0,0,0-8.94,1.81,43.87,43.87,0,0,0-7.47,4.07l-3.62-6.45a60.84,60.84,0,0,1,9.39-4.8,31.31,31.31,0,0,1,12.22-2.32q10.06,0,14.59,6.16t4.53,16.46v33.71h-7.7l-.79-6.56h-.34a46.44,46.44,0,0,1-8.48,5.6A21.11,21.11,0,0,1,345.21,269.21Zm2.72-7.47a15.58,15.58,0,0,0,7.46-1.87,37.29,37.29,0,0,0,7.47-5.48V239.12a93.25,93.25,0,0,0-11.6,2.15,30.74,30.74,0,0,0-7.58,2.94,11.42,11.42,0,0,0-4.18,3.9,9.26,9.26,0,0,0-1.3,4.81c0,3.16.94,5.43,2.83,6.78A11.46,11.46,0,0,0,347.93,261.74Z"/><path class="cls-2" d="M382.77,267.85v-55h7.69l.79,7.92h.34a45.21,45.21,0,0,1,8.31-6.62A19.09,19.09,0,0,1,410,211.52q8.7,0,12.72,5.43t4,16.06v34.84h-9.28v-33.6q0-7.8-2.49-11.25c-1.66-2.3-4.29-3.45-7.91-3.45a13.52,13.52,0,0,0-7.58,2.15A48.8,48.8,0,0,0,392,228v39.82Z"/><path class="cls-2" d="M461.16,269.21q-10.41,0-16.58-7.47t-6.16-21.27a34.63,34.63,0,0,1,2-12,28.61,28.61,0,0,1,5.26-9.11,23.32,23.32,0,0,1,7.58-5.77,21,21,0,0,1,9.05-2,18.72,18.72,0,0,1,8.25,1.69,36.74,36.74,0,0,1,7.13,4.64l-.45-9.39V187.31h9.39v80.54h-7.69l-.8-6.45h-.34a34.73,34.73,0,0,1-7.52,5.49A18.75,18.75,0,0,1,461.16,269.21Zm2-7.81a14.74,14.74,0,0,0,7.24-1.87,25.83,25.83,0,0,0,6.79-5.71V225.09a23.48,23.48,0,0,0-6.73-4.47,17.7,17.7,0,0,0-6.62-1.3,12.93,12.93,0,0,0-6.16,1.53,15.48,15.48,0,0,0-5,4.3,21.58,21.58,0,0,0-3.39,6.61,27.87,27.87,0,0,0-1.24,8.6q0,10,3.95,15.5A13,13,0,0,0,463.19,261.4Z"/><path class="cls-2" d="M519.18,293.19a41.51,41.51,0,0,1-9.27-1,22.72,22.72,0,0,1-7.18-2.89,14.27,14.27,0,0,1-4.64-4.64,11.94,11.94,0,0,1-1.64-6.33,11.65,11.65,0,0,1,2.15-6.68,22.44,22.44,0,0,1,5.88-5.76v-.46A10.72,10.72,0,0,1,501,262a11,11,0,0,1,.51-11.59,17.23,17.23,0,0,1,4.07-4.07v-.46a22.29,22.29,0,0,1-4.92-6.05,17.07,17.07,0,0,1-2.21-8.76,19.61,19.61,0,0,1,1.64-8.15,18.51,18.51,0,0,1,4.47-6.16,19.78,19.78,0,0,1,6.62-3.91,23.57,23.57,0,0,1,8-1.35,22,22,0,0,1,4.25.39,27.56,27.56,0,0,1,3.56,1h19.12V220H534.79a15.74,15.74,0,0,1,3.23,4.86,16,16,0,0,1,1.3,6.45,19.57,19.57,0,0,1-1.58,8,17.51,17.51,0,0,1-4.3,6,19.62,19.62,0,0,1-6.39,3.79,22.49,22.49,0,0,1-7.87,1.36,18.08,18.08,0,0,1-4.18-.51,21,21,0,0,1-4.07-1.41,13.27,13.27,0,0,0-2.49,2.77,6.65,6.65,0,0,0-1,3.79,5.37,5.37,0,0,0,2,4.3c1.35,1.13,3.92,1.69,7.69,1.69h10.63q9.62,0,14.42,3.11t4.81,10a14.78,14.78,0,0,1-1.92,7.3,18.76,18.76,0,0,1-5.55,6,29.16,29.16,0,0,1-8.76,4.13A40.69,40.69,0,0,1,519.18,293.19Zm1.36-6.45a25.05,25.05,0,0,0,7.18-1,19.9,19.9,0,0,0,5.49-2.49,11.76,11.76,0,0,0,3.51-3.56,8,8,0,0,0,1.24-4.19c0-2.56-.94-4.34-2.83-5.32s-4.63-1.47-8.25-1.47h-9.5c-1.06,0-2.21-.05-3.46-.17a17.17,17.17,0,0,1-3.67-.73,15,15,0,0,0-4.3,4.52,9.48,9.48,0,0,0-1.36,4.75c0,2.95,1.42,5.28,4.24,7S515.56,286.74,520.54,286.74Zm-1.36-42.53a11,11,0,0,0,4.47-.91,11.52,11.52,0,0,0,3.74-2.6,11.74,11.74,0,0,0,2.54-4.13,15.7,15.7,0,0,0,.91-5.48c0-4.08-1.14-7.22-3.4-9.45a11.87,11.87,0,0,0-16.51,0c-2.26,2.23-3.4,5.37-3.4,9.45a15.48,15.48,0,0,0,.91,5.48A11.74,11.74,0,0,0,511,240.7a11.52,11.52,0,0,0,3.74,2.6A11,11,0,0,0,519.18,244.21Z"/><path class="cls-2" d="M563,269.21q-5.31,0-7.58-3.17c-1.51-2.11-2.26-5.21-2.26-9.28V187.31h9.27v70.13a4.84,4.84,0,0,0,.8,3.17,2.35,2.35,0,0,0,1.81.9h.84a4.74,4.74,0,0,0,1.19-.22l1.25,7a8.11,8.11,0,0,1-2.15.68A18.32,18.32,0,0,1,563,269.21Z"/><path class="cls-2" d="M598.82,269.21a24.73,24.73,0,0,1-9.67-1.93,23.68,23.68,0,0,1-8.09-5.6,27.05,27.05,0,0,1-5.6-9.05,33.17,33.17,0,0,1-2.09-12.16,33.54,33.54,0,0,1,2.09-12.27,27.7,27.7,0,0,1,5.6-9.1,23.31,23.31,0,0,1,8.09-5.66,25.31,25.31,0,0,1,19.34,0,23.5,23.5,0,0,1,8.09,5.66,28,28,0,0,1,5.6,9.1,33.75,33.75,0,0,1,2.09,12.27,33.38,33.38,0,0,1-2.09,12.16,27.38,27.38,0,0,1-5.6,9.05,23.88,23.88,0,0,1-8.09,5.6A24.8,24.8,0,0,1,598.82,269.21Zm0-7.7a13.86,13.86,0,0,0,6.44-1.52,14.89,14.89,0,0,0,5-4.3,20.43,20.43,0,0,0,3.22-6.62,30.21,30.21,0,0,0,1.13-8.6,30.81,30.81,0,0,0-1.13-8.65,21.13,21.13,0,0,0-3.22-6.73,14.61,14.61,0,0,0-5-4.35,14.34,14.34,0,0,0-12.89,0,14.49,14.49,0,0,0-5,4.35,20.94,20.94,0,0,0-3.23,6.73,31.18,31.18,0,0,0-1.13,8.65,30.57,30.57,0,0,0,1.13,8.6,20.24,20.24,0,0,0,3.23,6.62,14.76,14.76,0,0,0,5,4.3A13.87,13.87,0,0,0,598.82,261.51Z"/><path class="cls-2" d="M645.65,267.85l-19.8-55h9.62l10.4,31.22c.83,2.72,1.68,5.43,2.55,8.15s1.71,5.39,2.54,8h.46c.83-2.64,1.65-5.32,2.48-8l2.49-8.15,10.41-31.22H676l-19.45,55Z"/><path class="cls-2" d="M703.9,269.21a27.13,27.13,0,0,1-10.35-2,24.55,24.55,0,0,1-8.37-5.66,26.18,26.18,0,0,1-5.6-9,33.64,33.64,0,0,1-2-12.11,33.24,33.24,0,0,1,2.1-12.16,28.37,28.37,0,0,1,5.54-9.1A24,24,0,0,1,693,213.5a22.16,22.16,0,0,1,9.17-2,23,23,0,0,1,9.33,1.81,18.18,18.18,0,0,1,6.9,5.2,24,24,0,0,1,4.24,8.14,36,36,0,0,1,1.47,10.64q0,1.47-.06,2.88a14.17,14.17,0,0,1-.28,2.43h-37.1q.56,8.83,5.48,14T705,261.74a21.7,21.7,0,0,0,7.3-1.19,32.51,32.51,0,0,0,6.39-3.11l3.28,6.11a46.53,46.53,0,0,1-8,4A27.94,27.94,0,0,1,703.9,269.21ZM686.59,236H716q0-8.37-3.56-12.73t-10-4.35a14.22,14.22,0,0,0-5.6,1.13,14.8,14.8,0,0,0-4.81,3.34,18.28,18.28,0,0,0-3.56,5.37A24.32,24.32,0,0,0,686.59,236Z"/><path class="cls-2" d="M747.56,269.21a29.6,29.6,0,0,1-11.19-2.15,35,35,0,0,1-9.28-5.43l4.64-6.22a37.2,37.2,0,0,0,7.41,4.75A20.16,20.16,0,0,0,747.9,262q5.43,0,8.15-2.49a8,8,0,0,0,2.71-6.11,6.27,6.27,0,0,0-1.13-3.73,11,11,0,0,0-2.88-2.77,21.08,21.08,0,0,0-4-2.1L746.21,243q-3-1-5.89-2.32a23.47,23.47,0,0,1-5.26-3.16,16.21,16.21,0,0,1-3.79-4.36,11.59,11.59,0,0,1-1.47-6,14.94,14.94,0,0,1,1.3-6.17,14.23,14.23,0,0,1,3.74-5,17.89,17.89,0,0,1,5.94-3.28,26.57,26.57,0,0,1,17.47.63,29.46,29.46,0,0,1,7.53,4.41l-4.42,5.88a29.67,29.67,0,0,0-5.88-3.51,16.29,16.29,0,0,0-6.67-1.35q-5.2,0-7.64,2.37a7.51,7.51,0,0,0-2.43,5.54,5.54,5.54,0,0,0,1,3.34,9.61,9.61,0,0,0,2.71,2.49,21.57,21.57,0,0,0,3.91,1.92l4.58,1.76q2.94,1.13,5.94,2.37a23.22,23.22,0,0,1,5.37,3.11,15.43,15.43,0,0,1,3.9,4.58,13.18,13.18,0,0,1,1.53,6.56,15.6,15.6,0,0,1-1.3,6.34,15.1,15.1,0,0,1-3.85,5.2,18.48,18.48,0,0,1-6.33,3.57A26.86,26.86,0,0,1,747.56,269.21Z"/><path class="cls-3" d="M272.24,176.7a9.11,9.11,0,0,1-6.71-2.83l1.46-1.69a8,8,0,0,0,2.41,1.74,6.72,6.72,0,0,0,2.87.65,4.49,4.49,0,0,0,3-.86,2.78,2.78,0,0,0,1-2.26,2.89,2.89,0,0,0-.24-1.24,2.78,2.78,0,0,0-.68-.88,5.1,5.1,0,0,0-1-.66l-1.26-.61-2.74-1.2a11.21,11.21,0,0,1-1.38-.7,5.68,5.68,0,0,1-1.25-1,4.85,4.85,0,0,1-.91-1.39,4.62,4.62,0,0,1-.35-1.85,4.43,4.43,0,0,1,.46-2,5,5,0,0,1,1.25-1.63,6,6,0,0,1,1.9-1.06,7.38,7.38,0,0,1,2.41-.38,7.61,7.61,0,0,1,3.18.66,7.86,7.86,0,0,1,2.48,1.7l-1.31,1.58a7,7,0,0,0-1.94-1.33,5.83,5.83,0,0,0-2.41-.48,4.17,4.17,0,0,0-2.59.75,2.69,2.69,0,0,0-.7,3.24,3,3,0,0,0,.75.84,5.9,5.9,0,0,0,1,.65q.56.27,1.14.51l2.71,1.16a12.61,12.61,0,0,1,1.55.81,5.42,5.42,0,0,1,1.26,1.05,4.76,4.76,0,0,1,.83,1.4,5.28,5.28,0,0,1,.3,1.85,5.17,5.17,0,0,1-.45,2.14,5,5,0,0,1-1.3,1.73,6,6,0,0,1-2,1.17A8.18,8.18,0,0,1,272.24,176.7Z"/><path class="cls-3" d="M286.64,176.7a6.41,6.41,0,0,1-2.5-.49,6.1,6.1,0,0,1-2.09-1.45,7.07,7.07,0,0,1-1.44-2.33,9.49,9.49,0,0,1,0-6.31,7.27,7.27,0,0,1,1.44-2.35,6.13,6.13,0,0,1,2.09-1.46,6.48,6.48,0,0,1,5,0,6,6,0,0,1,2.09,1.46,7.13,7.13,0,0,1,1.45,2.35,9.49,9.49,0,0,1,0,6.31,6.93,6.93,0,0,1-1.45,2.33,6,6,0,0,1-2.09,1.45A6.36,6.36,0,0,1,286.64,176.7Zm0-2a3.45,3.45,0,0,0,1.66-.4,3.73,3.73,0,0,0,1.3-1.11,5.09,5.09,0,0,0,.83-1.7,7.64,7.64,0,0,0,.3-2.22,7.88,7.88,0,0,0-.3-2.24,5.25,5.25,0,0,0-.83-1.73,3.79,3.79,0,0,0-1.3-1.13,3.56,3.56,0,0,0-1.66-.39,3.63,3.63,0,0,0-1.67.39,4,4,0,0,0-1.3,1.13,5.45,5.45,0,0,0-.83,1.73,8.27,8.27,0,0,0-.29,2.24,8,8,0,0,0,.29,2.22,5.29,5.29,0,0,0,.83,1.7,3.92,3.92,0,0,0,1.3,1.11A3.52,3.52,0,0,0,286.64,174.72Z"/><path class="cls-3" d="M299.92,176.7a3.83,3.83,0,0,1-3.31-1.4,6.9,6.9,0,0,1-1-4.14v-9H298v8.67a5.24,5.24,0,0,0,.62,2.91,2.33,2.33,0,0,0,2,.89,3.44,3.44,0,0,0,2-.57,9.43,9.43,0,0,0,1.87-1.82V162.16h2.39v14.19h-2l-.21-2.22h-.09a9.19,9.19,0,0,1-2.08,1.87A4.67,4.67,0,0,1,299.92,176.7Z"/><path class="cls-3" d="M310.49,176.35V162.16h2l.2,2.57h.09a6.72,6.72,0,0,1,1.77-2.13,3.76,3.76,0,0,1,3.78-.49l-.47,2.1a5.31,5.31,0,0,0-.64-.18,3.77,3.77,0,0,0-.73-.06,3.27,3.27,0,0,0-1.89.73,5.83,5.83,0,0,0-1.7,2.54v9.11Z"/><path class="cls-3" d="M324.77,176.7a7,7,0,0,1-2.63-.49,5.74,5.74,0,0,1-2.11-1.45,6.7,6.7,0,0,1-1.41-2.33,9.07,9.07,0,0,1-.51-3.14,8.46,8.46,0,0,1,.56-3.17,7,7,0,0,1,1.49-2.35,6.16,6.16,0,0,1,2.17-1.46,7,7,0,0,1,2.62-.5,5.31,5.31,0,0,1,2.39.5,8.1,8.1,0,0,1,1.75,1.17l-1.22,1.57a6.07,6.07,0,0,0-1.3-.9,3.39,3.39,0,0,0-1.54-.35,3.94,3.94,0,0,0-3.18,1.52,5.39,5.39,0,0,0-.92,1.73,7.21,7.21,0,0,0-.34,2.24,7,7,0,0,0,.33,2.22,5.18,5.18,0,0,0,.89,1.7,3.9,3.9,0,0,0,1.38,1.11,4,4,0,0,0,1.78.4,3.89,3.89,0,0,0,1.83-.43,7.4,7.4,0,0,0,1.5-1l1.05,1.6a7.4,7.4,0,0,1-2.13,1.33A6.37,6.37,0,0,1,324.77,176.7Z"/><path class="cls-3" d="M336.45,176.7a6.94,6.94,0,0,1-2.67-.51,6.16,6.16,0,0,1-2.16-1.46,6.59,6.59,0,0,1-1.45-2.32,9.51,9.51,0,0,1,0-6.26,7.15,7.15,0,0,1,1.43-2.35,6.35,6.35,0,0,1,2-1.48,5.7,5.7,0,0,1,2.36-.51,6,6,0,0,1,2.41.47,4.74,4.74,0,0,1,1.78,1.34,6.31,6.31,0,0,1,1.1,2.11,9.32,9.32,0,0,1,.37,2.74c0,.25,0,.5,0,.74a3.44,3.44,0,0,1-.07.63H332a5.56,5.56,0,0,0,1.42,3.61,4.38,4.38,0,0,0,3.31,1.33,5.66,5.66,0,0,0,1.88-.31,7.86,7.86,0,0,0,1.65-.8l.85,1.57a12.48,12.48,0,0,1-2.07,1A7.27,7.27,0,0,1,336.45,176.7ZM332,168.12h7.59a5.06,5.06,0,0,0-.92-3.29,3.16,3.16,0,0,0-2.58-1.12,3.75,3.75,0,0,0-1.45.29,4.13,4.13,0,0,0-1.24.86,5,5,0,0,0-.92,1.39A6.49,6.49,0,0,0,332,168.12Z"/><path class="cls-3" d="M354.23,176.7a9.12,9.12,0,0,1-6.72-2.83l1.46-1.69a8.21,8.21,0,0,0,2.41,1.74,6.8,6.8,0,0,0,2.88.65,4.51,4.51,0,0,0,2.95-.86,2.78,2.78,0,0,0,1.05-2.26,2.74,2.74,0,0,0-.25-1.24,2.9,2.9,0,0,0-.67-.88,5.19,5.19,0,0,0-1-.66l-1.25-.61-2.75-1.2a11.11,11.11,0,0,1-1.37-.7,5.51,5.51,0,0,1-1.26-1,4.59,4.59,0,0,1-1.25-3.24,4.55,4.55,0,0,1,.45-2,4.87,4.87,0,0,1,1.26-1.63,5.8,5.8,0,0,1,1.89-1.06,7.43,7.43,0,0,1,2.41-.38,7.69,7.69,0,0,1,3.19.66,7.86,7.86,0,0,1,2.48,1.7l-1.32,1.58a6.84,6.84,0,0,0-1.94-1.33,5.79,5.79,0,0,0-2.41-.48,4.12,4.12,0,0,0-2.58.75,2.43,2.43,0,0,0-1,2.05,2.3,2.3,0,0,0,.28,1.19,2.8,2.8,0,0,0,.74.84,6,6,0,0,0,1,.65c.36.18.74.35,1.13.51l2.72,1.16a13.37,13.37,0,0,1,1.55.81A5.57,5.57,0,0,1,359.6,168a4.56,4.56,0,0,1,.83,1.4,5.05,5.05,0,0,1,.31,1.85,5.17,5.17,0,0,1-.45,2.14,5.09,5.09,0,0,1-1.3,1.73,6.19,6.19,0,0,1-2,1.17A8.22,8.22,0,0,1,354.23,176.7Z"/><path class="cls-3" d="M366.38,176.7a4.31,4.31,0,0,1-3-1,3.76,3.76,0,0,1-1.18-3,3.94,3.94,0,0,1,2.07-3.57,17,17,0,0,1,6.63-1.74,6.33,6.33,0,0,0-.13-1.31,3.4,3.4,0,0,0-.45-1.14,2.46,2.46,0,0,0-.89-.8,3,3,0,0,0-1.45-.31,5.78,5.78,0,0,0-2.31.47,10.88,10.88,0,0,0-1.92,1l-.94-1.67a15.17,15.17,0,0,1,2.43-1.24,8,8,0,0,1,3.15-.6,4.37,4.37,0,0,1,3.77,1.59,7.11,7.11,0,0,1,1.16,4.25v8.7h-2l-.21-1.69h-.08a12.59,12.59,0,0,1-2.19,1.45A5.55,5.55,0,0,1,366.38,176.7Zm.7-1.92a3.92,3.92,0,0,0,1.92-.49,9.46,9.46,0,0,0,1.93-1.41v-3.94a24,24,0,0,0-3,.55,8.27,8.27,0,0,0-2,.76,3,3,0,0,0-1.08,1,2.42,2.42,0,0,0-.33,1.24,2,2,0,0,0,.72,1.75A3,3,0,0,0,367.08,174.78Z"/><path class="cls-3" d="M376.65,176.35V162.16h2l.2,2.05h.09a11.69,11.69,0,0,1,2.15-1.71,4.89,4.89,0,0,1,2.61-.69,3.81,3.81,0,0,1,3.28,1.4,6.89,6.89,0,0,1,1,4.15v9h-2.39v-8.67a5,5,0,0,0-.65-2.9,2.31,2.31,0,0,0-2-.89,3.51,3.51,0,0,0-2,.55,13,13,0,0,0-1.92,1.64v10.27Z"/><path class="cls-3" d="M395.17,176.7a7.67,7.67,0,0,1-2.9-.55,9.17,9.17,0,0,1-2.39-1.4l1.2-1.61a9.36,9.36,0,0,0,1.91,1.23,5.22,5.22,0,0,0,2.26.47,3,3,0,0,0,2.1-.65,2,2,0,0,0,.7-1.57,1.61,1.61,0,0,0-.29-1,2.79,2.79,0,0,0-.74-.71,4.84,4.84,0,0,0-1-.54l-1.17-.47c-.5-.18-1-.37-1.51-.6a5.93,5.93,0,0,1-1.36-.82,4,4,0,0,1-1-1.12,3,3,0,0,1-.38-1.55,3.76,3.76,0,0,1,.34-1.59,3.54,3.54,0,0,1,1-1.28,4.53,4.53,0,0,1,1.53-.85,6.54,6.54,0,0,1,2-.31,6.38,6.38,0,0,1,2.46.47,7.7,7.7,0,0,1,1.95,1.14l-1.14,1.52a8.26,8.26,0,0,0-1.52-.91,4.26,4.26,0,0,0-1.72-.35,2.79,2.79,0,0,0-2,.61,2,2,0,0,0-.62,1.44,1.41,1.41,0,0,0,.26.86,2.72,2.72,0,0,0,.7.64,5.59,5.59,0,0,0,1,.5l1.18.45c.51.19,1,.4,1.53.61a6.08,6.08,0,0,1,1.39.8,4,4,0,0,1,1,1.19,3.41,3.41,0,0,1,.39,1.69,4.11,4.11,0,0,1-.33,1.64,4,4,0,0,1-1,1.34,4.76,4.76,0,0,1-1.63.92A7,7,0,0,1,395.17,176.7Z"/><path class="cls-3" d="M407.43,176.35V157.2h5.46a13.92,13.92,0,0,1,2.93.29,6.2,6.2,0,0,1,2.26.95,4.43,4.43,0,0,1,1.46,1.74,6,6,0,0,1,.53,2.65,6.23,6.23,0,0,1-.51,2.63,4.78,4.78,0,0,1-1.45,1.84,6.38,6.38,0,0,1-2.23,1.1,10.81,10.81,0,0,1-2.88.36h-3.15v7.59Zm2.42-9.57h2.86a6,6,0,0,0,3.72-.95,3.57,3.57,0,0,0,1.22-3,3.14,3.14,0,0,0-1.27-2.87,7.15,7.15,0,0,0-3.79-.8h-2.74Z"/><path class="cls-3" d="M422.55,176.35V162.16h2l.2,2.57h.09a6.57,6.57,0,0,1,1.76-2.13,3.78,3.78,0,0,1,3.79-.49l-.47,2.1a5.31,5.31,0,0,0-.64-.18,3.77,3.77,0,0,0-.73-.06,3.24,3.24,0,0,0-1.89.73,5.83,5.83,0,0,0-1.7,2.54v9.11Z"/><path class="cls-3" d="M436.74,176.7a6.44,6.44,0,0,1-2.5-.49,6.07,6.07,0,0,1-2.08-1.45,6.93,6.93,0,0,1-1.45-2.33,9.49,9.49,0,0,1,0-6.31,7.13,7.13,0,0,1,1.45-2.35,6.09,6.09,0,0,1,2.08-1.46,6.5,6.5,0,0,1,5,0,6.13,6.13,0,0,1,2.09,1.46,7.27,7.27,0,0,1,1.44,2.35,9.49,9.49,0,0,1,0,6.31,7.07,7.07,0,0,1-1.44,2.33,6.1,6.1,0,0,1-2.09,1.45A6.41,6.41,0,0,1,436.74,176.7Zm0-2a3.52,3.52,0,0,0,1.67-.4,3.79,3.79,0,0,0,1.29-1.11,5.3,5.3,0,0,0,.84-1.7,8,8,0,0,0,.29-2.22,8.27,8.27,0,0,0-.29-2.24,5.47,5.47,0,0,0-.84-1.73,3.85,3.85,0,0,0-1.29-1.13,3.63,3.63,0,0,0-1.67-.39,3.56,3.56,0,0,0-1.66.39,3.79,3.79,0,0,0-1.3,1.13,5.25,5.25,0,0,0-.83,1.73,7.88,7.88,0,0,0-.3,2.24,7.64,7.64,0,0,0,.3,2.22,5.09,5.09,0,0,0,.83,1.7,3.73,3.73,0,0,0,1.3,1.11A3.45,3.45,0,0,0,436.74,174.72Z"/></svg>