<?xml version="1.0" encoding="utf-8"?>
<!-- Generator: Adobe Illustrator 24.0.3, SVG Export Plug-In . SVG Version: 6.00 Build 0)  -->
<svg version="1.1" id="Layer_1" xmlns="http://www.w3.org/2000/svg" xmlns:xlink="http://www.w3.org/1999/xlink" x="0px" y="0px"
	 viewBox="0 0 118 103.9" style="enable-background:new 0 0 118 103.9;" xml:space="preserve">
<g>
	<path d="M92.1,10.7H118V0H89.9C72.8,0,65.7,13.8,65.7,26.1c0,7.7,2.3,14.2,6.8,19.3C77,50.5,82.7,53,89.8,53
		c6.2,0,11.6-2.4,16.4-7.3v31c0,10.7-4.4,16.3-13.1,16.3c-4.7,0-8.3-1.6-10.8-4.8c-1.1-1.4-2-3.4-2-6s0.9-4.7,2-6
		c2.5-3.2,6.1-4.8,10.8-4.8h0V60.8H52.3V21H40.9v4.9c0,4.7-1.2,8.5-3.7,11.5c-2.6,3.3-6.2,5-10.8,5c-4.6,0-8.1-1.6-10.7-4.9
		c-2.4-3-3.5-6.8-3.5-11.5c0-7.4,3.6-15.2,14.2-15.2h25.9V0H24.2C7.1,0,0,13.8,0,26.1c0,7.7,2.3,14.2,6.8,19.3
		C11.3,50.5,17,53,24,53c6.2,0,11.6-2.4,16.4-7.3v15H27.2c-6.9,0-12.5,1.9-17,5.6c-4.6,3.8-7.6,9.3-7.6,16.1c0,6.8,3.1,12,7.6,15.8
		c4.4,3.7,10.1,5.6,17,5.6c8.7,0,18.3-3.2,22.9-13.9c1.9-4.4,2.2-9.4,2.2-15.4v-3h19.1c-2,3.1-3.1,6.8-3.1,10.9
		c0,6.8,3.1,12,7.6,15.8c4.4,3.7,10.1,5.6,17,5.6c8.7,0,18.3-3.2,22.9-13.9c1.9-4.4,2.2-9.4,2.2-15.4V21h-11.4v4.9
		c0,4.7-1.2,8.5-3.7,11.5c-2.6,3.3-6.2,5-10.8,5c-4.6,0-8.1-1.6-10.7-4.9c-2.4-3-3.5-6.8-3.5-11.5C77.9,18.6,81.5,10.7,92.1,10.7z
		 M40.4,76.8c0,10.7-4.4,16.3-13.1,16.3c-4.7,0-8.3-1.6-10.8-4.8c-1.1-1.4-2-3.4-2-6s0.9-4.7,2-6c2.5-3.2,6.1-4.8,10.8-4.8h13.1
		V76.8z"/>
</g>
</svg>
