<svg id="Layer_1" data-name="Layer 1" xmlns="http://www.w3.org/2000/svg" viewBox="0 0 240 50"><title>logo_1</title><path d="M139.58,38.56a4.48,4.48,0,0,0-3.8,1.69,3.47,3.47,0,0,0-.7,2.13,3.4,3.4,0,0,0,.7,2.1,4.48,4.48,0,0,0,3.8,1.69c3.06,0,4.6-2,4.6-5.75V29.5a7.85,7.85,0,0,1-5.76,2.55,7.71,7.71,0,0,1-6.07-2.68,9.94,9.94,0,0,1-2.39-6.8c0-4.34,2.49-9.19,8.52-9.19h9.89v3.77h-9.11c-3.74,0-5,2.77-5,5.36a6.34,6.34,0,0,0,1.25,4.07,4.52,4.52,0,0,0,3.76,1.73,4.59,4.59,0,0,0,3.8-1.75,6.23,6.23,0,0,0,1.29-4.06V20.77h4V39.6A13.42,13.42,0,0,1,147.6,45c-1.63,3.77-5,4.91-8.06,4.91a9,9,0,0,1-6-2,7,7,0,0,1-2.69-5.57,7.21,7.21,0,0,1,2.69-5.66,9,9,0,0,1,6-2h0Z"/><path d="M7,42.38a3.46,3.46,0,0,0,.69,2.1,4.5,4.5,0,0,0,3.8,1.69c3.07,0,4.6-2,4.6-5.75V29.5a7.82,7.82,0,0,1-5.75,2.55,7.73,7.73,0,0,1-6.08-2.68,9.93,9.93,0,0,1-2.38-6.8c0-4.34,2.48-9.19,8.51-9.19h9.9v3.77H11.18c-3.74,0-5,2.77-5,5.36a6.39,6.39,0,0,0,1.25,4.07,4.54,4.54,0,0,0,3.77,1.73A4.59,4.59,0,0,0,15,26.56a6.28,6.28,0,0,0,1.28-4.06V20.77h4V39.6c0,.85,0,1.61-.09,2.26A14.14,14.14,0,0,1,20,43.58a7.69,7.69,0,0,1-1.75,3.53,8.53,8.53,0,0,1-6.77,2.83,9,9,0,0,1-6-2,7,7,0,0,1-2.69-5.57,7.24,7.24,0,0,1,2.69-5.66,9.06,9.06,0,0,1,6-2H27.29v3.77H11.49a4.5,4.5,0,0,0-3.8,1.69A3.53,3.53,0,0,0,7,42.38Z"/><path d="M236.69,15.05l-2.37,2.76a4.83,4.83,0,0,0-3.12-1.17A1.83,1.83,0,0,0,230,17a1.32,1.32,0,0,0-.45,1c0,.94.79,1.44,2.43,2.06,4.36,1.67,6.1,2.88,6.1,6.12,0,1.75-1.61,5.86-6.94,5.86a8.2,8.2,0,0,1-6.51-3l2.39-2.68a6,6,0,0,0,4.19,1.95c1.42,0,2.59-.75,2.59-2s-1.5-2-3.26-2.64c-2.37-.85-4.92-2.24-4.92-5.29a5.17,5.17,0,0,1,1.62-3.91,5.71,5.71,0,0,1,4-1.55A7.4,7.4,0,0,1,236.69,15.05Z"/><path d="M37.9,13.38h4.21V31.53H37.9v-1.9a8.06,8.06,0,0,1-11.8-.3,10.15,10.15,0,0,1-2.44-6.93,9.85,9.85,0,0,1,2.44-6.8,7.89,7.89,0,0,1,6.11-2.72,7.72,7.72,0,0,1,5.69,2.61ZM28,22.4a6.32,6.32,0,0,0,1.39,4.25A4.58,4.58,0,0,0,33,28.31a4.79,4.79,0,0,0,3.76-1.6,6.2,6.2,0,0,0,1.44-4.21,6.21,6.21,0,0,0-1.44-4.22A4.73,4.73,0,0,0,33,16.66a4.66,4.66,0,0,0-3.62,1.64A6.1,6.1,0,0,0,28,22.4Z"/><path d="M55,28.31c.33,0,.76,0,.76,0V32s-1,.07-1.47.07c-4,0-6.41-2.56-6.41-6.67V17.3H46V13.38h1.93V6.73h4.2v6.65h3.77V17.3H52.08v7.41C52.08,27.71,53.82,28.31,55,28.31Z"/><path d="M71.09,15.05l-2.37,2.76a4.72,4.72,0,0,0-3.11-1.17,1.68,1.68,0,0,0-1.17.39A1.34,1.34,0,0,0,64,18c0,.94.78,1.44,2.42,2.06,4.36,1.67,6.1,2.88,6.1,6.12,0,1.75-1.6,5.86-6.94,5.86a8.2,8.2,0,0,1-6.51-3l2.39-2.68a6,6,0,0,0,4.19,1.95c1.42,0,2.59-.75,2.59-2s-1.5-2-3.26-2.64c-2.36-.85-4.92-2.24-4.92-5.29a5.18,5.18,0,0,1,1.63-3.91,5.67,5.67,0,0,1,4-1.55A7.4,7.4,0,0,1,71.09,15.05Z"/><path d="M80.23.06V15.49a7.75,7.75,0,0,1,5.71-2.61,7.84,7.84,0,0,1,6.11,2.74,9.8,9.8,0,0,1,2.44,6.78A10,10,0,0,1,92,29.33a7.92,7.92,0,0,1-6.17,2.72,7.84,7.84,0,0,1-5.63-2.42v1.9H76V.06Zm10,22.53a6.28,6.28,0,0,0-1.41-4.25,4.55,4.55,0,0,0-3.6-1.68,4.8,4.8,0,0,0-3.76,1.62A6,6,0,0,0,80,22.46a6.1,6.1,0,0,0,1.42,4.23,4.69,4.69,0,0,0,3.72,1.62,4.63,4.63,0,0,0,3.62-1.62A5.94,5.94,0,0,0,90.2,22.59Z"/><path d="M103.67,28.16,95.51,13.38h4.86l5.56,10.44,5.18-10.44h4.73l-14.46,28H96.59Z"/><path d="M157.15,13.38V23.8q0,4.51,3.56,4.51t3.56-4.51V13.38h4.19V23.89a11.73,11.73,0,0,1-.54,3.77,6.36,6.36,0,0,1-1.81,2.55,8.83,8.83,0,0,1-10.79,0,6.44,6.44,0,0,1-1.84-2.55,10.37,10.37,0,0,1-.52-3.77V13.38Z"/><path d="M172.41,5.84a2.59,2.59,0,0,1,.8-1.9,2.73,2.73,0,0,1,3.86,0,2.59,2.59,0,0,1,.8,1.92,2.64,2.64,0,0,1-.8,1.93,2.56,2.56,0,0,1-1.92.81,2.64,2.64,0,0,1-1.94-.81A2.66,2.66,0,0,1,172.41,5.84Zm4.83,7.54V31.53H173V13.38Z"/><path d="M195.93.06h4.21V31.53h-4.21v-1.9a7.83,7.83,0,0,1-5.61,2.42,8,8,0,0,1-6.19-2.72,10.1,10.1,0,0,1-2.44-6.93,9.75,9.75,0,0,1,2.44-6.78,7.84,7.84,0,0,1,11.8-.13ZM186,22.4a6.32,6.32,0,0,0,1.39,4.25A4.57,4.57,0,0,0,191,28.31a4.79,4.79,0,0,0,3.76-1.6,6.2,6.2,0,0,0,1.44-4.21,6.21,6.21,0,0,0-1.44-4.22A4.73,4.73,0,0,0,191,16.66a4.64,4.64,0,0,0-3.62,1.64A6,6,0,0,0,186,22.4Z"/><path d="M221.6,23.45h-13A5.46,5.46,0,0,0,210.05,27a4.45,4.45,0,0,0,3.3,1.31,4.27,4.27,0,0,0,2.59-.75,10.52,10.52,0,0,0,2.29-2.75l3.54,2a14.55,14.55,0,0,1-1.73,2.4,9.34,9.34,0,0,1-2,1.64,8.12,8.12,0,0,1-2.25.94,11.52,11.52,0,0,1-2.63.29,8.53,8.53,0,0,1-6.52-2.6,9.81,9.81,0,0,1-2.46-7,10,10,0,0,1,2.38-7A8.25,8.25,0,0,1,213,12.88a8.14,8.14,0,0,1,6.33,2.55,10,10,0,0,1,2.31,7ZM217.3,20a4,4,0,0,0-4.23-3.36,4.27,4.27,0,0,0-1.44.24,4.16,4.16,0,0,0-1.22.67,4.31,4.31,0,0,0-.94,1.05,4.76,4.76,0,0,0-.59,1.4Z"/></svg>